<svg width="22" height="25" viewBox="0 0 22 25" fill="none" xmlns="http://www.w3.org/2000/svg">
<path d="M15.2348 16.3217C15.1338 16.2123 15.0141 16.1306 14.8851 16.0769C16.7867 14.518 18 12.1507 18 9.5C18 4.80558 14.1944 1 9.5 1C4.80558 1 1 4.80558 1 9.5C1 14.1944 4.80558 18 9.5 18C10.9461 18 12.3078 17.6389 13.5 17.0019C13.5004 17.2439 13.5881 17.4864 13.7652 17.6783L19.7652 24.1783C20.1398 24.5841 20.7725 24.6094 21.1783 24.2348C21.5841 23.8602 21.6094 23.2275 21.2348 22.8217L15.2348 16.3217Z" stroke="#796150" stroke-width="2" stroke-linecap="round"/>
</svg>
