<?xml version="1.0" encoding="utf-8"?>
<!-- Generator: Adobe Illustrator 26.3.1, SVG Export Plug-In . SVG Version: 6.00 Build 0)  -->
<svg version="1.1" id="outline" xmlns="http://www.w3.org/2000/svg" xmlns:xlink="http://www.w3.org/1999/xlink" x="0px" y="0px"
	 viewBox="0 0 512 512" enable-background="new 0 0 512 512" xml:space="preserve">
<g>
	<path d="M484.511,497.211c0.011,0,0.022,0,0.033,0c4.316,0,8.248-2.538,10.024-6.474c1.78-3.946,1.074-8.588-1.8-11.825
		l-29.505-33.229c-7.768-9.129-20.746-11.946-31.604-6.85c-3.834,1.8-7.225,4.526-9.804,7.885l-2.346,3.054l-14.721,2.63
		l-49.193-13.862c-17.526-4.938-36.104-5.12-53.728-0.521l-4.021,1.049l-45.51-47.855c-1.698-15.172-8.56-29.285-19.514-40.013
		l-7.071-6.926c-4.81-24.924,2.002-51.138,18.445-70.557l4.538-5.359c7.13-7.799,11.641-17.794,12.707-28.382l7.59,1.142
		l-0.654,2.515c-2.062,7.925-2.322,16.361-0.753,24.399c3.71,19.005,17.35,34.838,35.597,41.32l4.087,1.451
		c0.874,0.31,1.778,0.461,2.676,0.461c1.995,0,3.956-0.747,5.462-2.153c2.184-2.04,3.048-5.126,2.243-8.004l-4.672-16.685
		c-2.614-9.335-0.977-19.279,4.49-27.284c7.198-10.541,7.797-24.008,1.562-35.146l-1.763-3.149c1.486-3.907,2.28-8.09,2.28-12.367
		c0-13.172-7.642-25.431-19.467-31.23l-5.091-2.497l-8.766-5.18l-10.435-10.91l8.244-10.379c4.45-5.604,7.702-12.229,9.416-19.178
		l16.357-50.897l15.942-11.544c1.509-1.093,2.589-2.678,3.055-4.482l7.627-29.581c0.546-2.118,0.201-4.367-0.955-6.224
		c-1.156-1.857-3.021-3.16-5.163-3.605l-33.806-7.032c-3.618-0.761-7.281,1.069-8.861,4.411l-16.407,34.689l-43.167,76.569
		c-3.32,5.889-5.63,12.246-6.866,18.894l-9.801,52.729l-35.486,10.481c-16.338,4.825-27.126,20.646-25.65,37.619l1.131,13.012
		l-1.026,5.012c-4.817,23.519-4.888,48.15-0.283,71.743l-57.722-19.006c-8.157-2.685-17.058-2.447-25.052,0.664l-0.436,0.169
		c-17.727,6.901-27.686,25.383-23.681,43.943c6.013,27.86,15.21,70.724,18.528,86.195l-18.609,10.225
		c-7.712,4.237-11.19,13.337-8.271,21.631l0.068,0.193c2.561,7.276,9.43,12.152,17.109,12.152c0.023,0,0.046,0,0.069,0
		c7.815-0.028,20.492-0.036,30.191-0.038c11.188-0.003,21.538-5.585,27.692-14.939l0.149-0.228
		c4.324-6.572,6.238-14.478,5.391-22.258c-1.513-13.892-4.398-40.435-6.284-57.788c13.902,8.604,28.336,16.474,43.059,23.471
		l7.829,3.72l99.918,59.828c9.749,5.838,20.908,8.98,32.27,9.089L484.511,497.211z M425.373,464.978
		c1.962-0.351,3.723-1.421,4.938-3.001l4.233-5.512c1.03-1.341,2.384-2.43,3.915-3.148c4.347-2.04,9.549-0.902,12.648,2.77
		c0.043,0.051,0.087,0.102,0.131,0.151l22.145,24.94l-61.992-0.185l0.672-13.638L425.373,464.978z M165.128,275.501l46.108,28.579
		c-2.953,11.9-3.759,24.333-2.239,36.627l-41.703,1.92C162.051,320.763,161.321,297.679,165.128,275.501z M304.294,248.115
		c-8.013,11.733-10.499,26.266-6.86,39.976c-7.197-5.714-12.303-13.892-14.106-23.125c-1.113-5.7-0.928-11.684,0.534-17.305
		l1.276-4.905c7.561-0.463,14.827-3.382,20.657-8.443l0.869-0.754C308.069,238.461,307.265,243.766,304.294,248.115z
		 M287.841,207.127l7.259-16.348c5.216,3.439,8.487,9.369,8.487,15.697c0,5.446-2.359,10.618-6.472,14.188l-1.806,1.566
		c-4.157,3.608-9.662,5.207-15.107,4.389l-17.445-2.624l0.688-8.525l18.659-3.745C284.648,211.214,286.788,209.5,287.841,207.127z
		 M281.022,183.057l-6.125,13.795l-10.114,2.03l2.279-28.238l8.399,8.781c0.506,0.528,1.082,0.985,1.711,1.357L281.022,183.057z
		 M236.975,151.224c0.913-4.912,2.62-9.609,5.073-13.961l43.307-76.818c0.094-0.166,0.182-0.336,0.263-0.508l13.836-29.254
		l19.427,4.041l-4.813,18.668l-15.73,11.391c-1.379,0.998-2.403,2.411-2.924,4.032c0,0-17.364,54.054-17.411,54.25
		c-1.152,4.807-3.386,9.394-6.46,13.264l-18.258,22.987c-0.987,1.242-1.582,2.75-1.709,4.332l-5.979,74.082
		c-0.576,7.14-3.489,13.913-8.159,19.258c-0.14,0.142-2.859,2.955-4.066,3.933c-5.562,4.509-13.466,5.133-19.667,1.556
		c-5.382-3.105-8.722-8.895-8.717-15.109l0.003-3.818c0.002-3.853,1.307-7.649,3.675-10.691c0,0,16.126-20.732,16.162-20.781
		C224.95,211.912,236.975,151.224,236.975,151.224z M180.49,226.853l17.21-6.785c-4.542,5.835-8.705,16.08-8.709,23.47l-0.003,3.816
		c-0.01,11.92,6.397,23.024,16.722,28.981c4.51,2.601,9.488,4.045,14.513,4.363c-1.364,2.549-2.61,5.155-3.748,7.805l-49.343-30.584
		l-0.885-10.177C165.428,238.317,171.418,229.532,180.49,226.853z M96.644,471.298c-3.182,4.836-8.537,7.725-14.324,7.726
		c-9.716,0.002-22.417,0.01-30.247,0.038c-0.003,0-0.005,0-0.008,0c-0.913,0-1.705-0.573-2.015-1.456l-0.068-0.193
		c-0.311-0.884,0.06-1.853,0.881-2.304l22.179-12.186l26.684-1.073c-0.115,3.252-1.113,6.454-2.933,9.221L96.644,471.298z
		 M268.297,473.103c0,0-100.692-60.278-100.923-60.388l-8.175-3.885c-18.085-8.596-35.721-18.557-52.417-29.609l-2.86-1.893
		c-1.336-0.884-2.875-1.328-4.416-1.328c-1.44,0-2.882,0.389-4.162,1.168c-2.648,1.613-4.125,4.612-3.791,7.696
		c0,0,3.938,36.256,6.634,61.035l-20.941,0.842c-3.448-16.079-12.45-58.03-18.369-85.451c-2.337-10.834,3.485-21.625,13.838-25.655
		l0.436-0.169c4.55-1.772,9.612-1.907,14.251-0.38c0,0,72.329,23.719,72.471,23.74c0.098,0.015,55.427-2.393,55.427-2.393
		l6.326,6.196c8.851,8.668,14.181,20.249,15.01,32.61c0.125,1.863,0.898,3.624,2.185,4.978l50.682,53.295
		c2.006,2.109,5.001,2.964,7.818,2.228l8.585-2.24c14.875-3.88,30.556-3.729,45.348,0.439l44.827,12.632l-0.706,14.323
		L292.5,479.918C283.979,479.837,275.609,477.48,268.297,473.103z"/>
</g>
</svg>
