<?xml version="1.0" encoding="utf-8"?>
<!-- Generator: Adobe Illustrator 22.0.0, SVG Export Plug-In . SVG Version: 6.00 Build 0)  -->
<svg version="1.1" id="outline" xmlns="http://www.w3.org/2000/svg" xmlns:xlink="http://www.w3.org/1999/xlink" x="0px" y="0px"
	 viewBox="0 0 512 512" enable-background="new 0 0 512 512" xml:space="preserve">
<path d="M180,368c0-2.2-1.8-4-4-4h-52.5L108,247.5c-0.3-2-2-3.5-4-3.5H8c-1.2,0-2.3,0.5-3,1.4c-0.8,0.9-1.1,2-1,3.2l16,119.7v15.6
	l-5,103.9c-0.1,2.2,1.6,4.1,3.8,4.2c0.1,0,0.1,0,0.2,0c2.1,0,3.9-1.7,4-3.8l4.4-92.2h48.4L72,487.8c-0.1,2.2,1.6,4.1,3.8,4.2
	c0.1,0,0.1,0,0.2,0c2.1,0,3.9-1.7,4-3.8l3.8-92.2h32.3l3.8,92.2c0.1,2.2,1.9,3.8,4,3.8c0.1,0,0.1,0,0.2,0c2.2-0.1,3.9-2,3.8-4.2
	l-3.8-91.8h48.7l4.1,92.2c0.1,2.1,1.9,3.8,4,3.8c0.1,0,0.1,0,0.2,0c2.2-0.1,3.9-2,3.8-4.2l-5-111.9V368z M115.4,364H80H51.5
	L36.6,252h63.9L115.4,364z M28,367.5L12.6,252h15.9L44,368.5c0.3,2,2,3.5,4,3.5h28v16H28v-20C28,367.8,28,367.6,28,367.5z M172,388
	h-52H84v-16h36h52V388z"/>
<path d="M508,248.5c0.2-1.1-0.2-2.3-1-3.2c-0.8-0.9-1.9-1.4-3-1.4h-96c-2,0-3.7,1.5-4,3.5L388.5,364H336c-2.2,0-4,1.8-4,4v7.9
	l-4,111.9c-0.1,2.2,1.6,4.1,3.9,4.1c0,0,0.1,0,0.1,0c2.1,0,3.9-1.7,4-3.9l3.3-92.1h48.5l-3.8,91.8c-0.1,2.2,1.6,4.1,3.8,4.2
	c0.1,0,0.1,0,0.2,0c2.1,0,3.9-1.7,4-3.8l3.8-92.2h32.3l3.8,92.2c0.1,2.2,1.9,3.8,4,3.8c0.1,0,0.1,0,0.2,0c2.2-0.1,3.9-2,3.8-4.2
	l-3.8-91.8h48.3l3.5,92.2c0.1,2.2,1.9,3.8,4,3.8c0.1,0,0.1,0,0.2,0c2.2-0.1,3.9-1.9,3.8-4.2l-4-103.9v-15.7L508,248.5z M411.5,252
	h63.9l-14.9,112h-63.9L411.5,252z M340,388v-16h88v16H340z M484,388h-48v-16h28c2,0,3.7-1.5,4-3.5L483.5,252h15.9L484,367.5
	c0,0.2,0,0.4,0,0.5V388z"/>
<path d="M322.8,484.6c-5.1-10.3-15.4-16.6-26.9-16.6c-4.4,0-8.6-1.3-12.2-3.7l-10.8-7.2c-1.6-1-3.2-1.9-4.9-2.6V344.9
	c1.7-0.3,3.3-0.6,5-1c9.8-2.5,20.2-2.5,30.1,0c11.1,2.8,22.8,2.8,33.9,0c9.8-2.5,20.2-2.5,30.1,0l16,4c0.3,0.1,0.6,0.1,1,0.1
	c1,0,2-0.4,2.8-1.1c1-0.9,1.4-2.3,1.2-3.7l-6.7-33.6c-1.1-5.4-5.7-9.3-11-9.6l-2.1-3.2c-2.8-4.2-7.2-7.1-12.1-8.2v-7.8l15.6-31.2
	c0.6-1.2,0.6-2.7-0.2-3.9c-0.7-1.2-2-1.9-3.4-1.9h-32c-1.4,0-2.7,0.7-3.4,1.9c-0.7,1.2-0.8,2.7-0.2,3.9l15.6,31.2v7.8
	c-4.9,1-9.2,3.9-12.1,8.2l-2.1,3.1h-3c0.8-1.7,1.2-3.5,1.2-5.5V288c0-2.2-1.8-4-4-4h-48c-2.2,0-4,1.8-4,4v6.5c0,2,0.4,3.8,1.2,5.5
	h-3.5L260,286.3V236h10c12.1,0,22-9.9,22-22v-10h4c2.2,0,4-1.8,4-4s-1.8-4-4-4h-4v-44h-8v44h-4c-2.2,0-4,1.8-4,4s1.8,4,4,4h4v10
	c0,7.7-6.3,14-14,14h-10v-24h4c2.2,0,4-1.8,4-4s-1.8-4-4-4h-4v-44h-8v44h-4c-2.2,0-4,1.8-4,4s1.8,4,4,4h4v24h-10
	c-7.7,0-14-6.3-14-14v-10h4c2.2,0,4-1.8,4-4s-1.8-4-4-4h-4v-44h-8v44h-4c-2.2,0-4,1.8-4,4s1.8,4,4,4h4v10c0,12.1,9.9,22,22,22h10
	v50.3L238.3,300H220v-22.5c0-6.2-1.1-12.2-3.3-17.9c-1.8-4.9-2.7-10-2.7-15.1V234c0-3.3-2.7-6-6-6h-8c-3.3,0-6,2.7-6,6v10.5
	c0,5.2-0.9,10.3-2.7,15.1c-2.2,5.8-3.3,11.8-3.3,17.9V300h-9.9l-2.1-3.1c-2.8-4.2-7.2-7.1-12.1-8.2v-7.8l15.6-31.2
	c0.6-1.2,0.6-2.7-0.2-3.9c-0.7-1.2-2-1.9-3.4-1.9h-32c-1.4,0-2.7,0.7-3.4,1.9c-0.7,1.2-0.8,2.7-0.2,3.9l15.6,31.2v7.8
	c-4.9,1-9.2,3.9-12.1,8.2l-2.1,3.2c-5.4,0.3-10,4.3-11,9.6l-6.7,33.6c-0.3,1.3,0.2,2.7,1.2,3.7s2.4,1.3,3.7,1l16-4
	c9.8-2.5,20.2-2.5,30.1,0c11.1,2.8,22.8,2.8,33.9,0c9.8-2.5,20.2-2.5,30.1,0c1.6,0.4,3.3,0.8,5,1v109.6c-1.7,0.7-3.3,1.6-4.9,2.6
	l-10.8,7.2c-3.6,2.4-7.9,3.7-12.2,3.7c-11.5,0-21.8,6.4-26.9,16.6l-0.8,1.6c-0.6,1.2-0.6,2.7,0.2,3.9c0.7,1.2,2,1.9,3.4,1.9h128
	c1.4,0,2.7-0.7,3.4-1.9c0.7-1.2,0.8-2.7,0.2-3.9L322.8,484.6z M361.5,252l-9.5,19.1l-9.5-19.1H361.5z M352,296.3
	c3.3,0,6.2,1.3,8.4,3.7h-16.7C345.8,297.6,348.7,296.3,352,296.3z M284,294.5V292h40v2.5c0,3-2.5,5.5-5.5,5.5h-29
	C286.5,300,284,297.5,284,294.5z M256,293.7l6.3,6.3h-12.7L256,293.7z M196,276H212c0,0.5,0,12.3,0,12.3h-16
	C196,288.3,196,276.5,196,276z M202,244.5V236h4v8.5c0,6.2,1.1,12.2,3.3,17.9c0.7,1.8,1.2,3.7,1.7,5.6h-13.9c0.4-1.9,1-3.8,1.7-5.6
	C200.9,256.6,202,250.6,202,244.5z M196,296.3h16v3.7h-16V296.3z M169.5,252l-9.5,19.1l-9.5-19.1H169.5z M160,296.3
	c3.3,0,6.2,1.3,8.4,3.7h-16.7C153.8,297.6,156.7,296.3,160,296.3z M142.6,308h226.9c1.9,0,3.5,1.4,3.9,3.2l1,4.8H137.7l1-4.8
	C139,309.4,140.7,308,142.6,308z M207,336.1c-9.8,2.5-20.2,2.5-30.1,0c-11.1-2.8-22.8-2.8-33.9,0l-9.9,2.5l2.9-14.6h239.8l2.9,14.6
	l-9.9-2.5c-5.6-1.4-11.3-2.1-17-2.1s-11.4,0.7-17,2.1c-9.8,2.5-20.2,2.5-30.1,0c-11.1-2.8-22.8-2.8-33.9,0c-9.8,2.5-20.2,2.5-30.1,0
	C229.9,333.3,218.1,333.3,207,336.1z M252,345.8c2.7,0.2,5.3,0.2,8,0v106.4c-1.3-0.2-2.7-0.3-4-0.3s-2.7,0.1-4,0.3V345.8z
	 M199.1,484c4.1-5,10.3-8,17-8c6,0,11.7-1.7,16.7-5l10.8-7.2c3.7-2.5,8-3.8,12.4-3.8s8.7,1.3,12.4,3.8l10.8,7.2c5,3.3,10.7,5,16.7,5
	c6.7,0,12.9,3,17,8H199.1z"/>
<path d="M222.5,148h3.1c5.8,0,10.5-4.7,10.5-10.5c0-1.6-0.4-3.2-1.1-4.7l-7.3-14.6c-0.7-1.4-2.1-2.2-3.6-2.2s-2.9,0.9-3.6,2.2
	l-7.3,14.6c-0.7,1.4-1.1,3.1-1.1,4.7C212,143.3,216.7,148,222.5,148z M220.3,136.4l3.7-7.5l3.7,7.5c0.2,0.3,0.3,0.7,0.3,1.1
	c0,1.4-1.1,2.5-2.5,2.5h-3.1c-1.4,0-2.5-1.1-2.5-2.5C220,137.1,220.1,136.8,220.3,136.4z"/>
<path d="M254.5,148h3.1c5.8,0,10.5-4.7,10.5-10.5c0-1.6-0.4-3.2-1.1-4.7l-7.3-14.6c-0.7-1.4-2.1-2.2-3.6-2.2s-2.9,0.9-3.6,2.2
	l-7.3,14.6c-0.7,1.4-1.1,3.1-1.1,4.7C244,143.3,248.7,148,254.5,148z M252.3,136.4l3.7-7.5l3.7,7.5c0.2,0.3,0.3,0.7,0.3,1.1
	c0,1.4-1.1,2.5-2.5,2.5h-3.1c-1.4,0-2.5-1.1-2.5-2.5C252,137.1,252.1,136.8,252.3,136.4z"/>
<path d="M286.5,148h3.1c5.8,0,10.5-4.7,10.5-10.5c0-1.6-0.4-3.2-1.1-4.7l-7.3-14.6c-0.7-1.4-2.1-2.2-3.6-2.2s-2.9,0.9-3.6,2.2
	l-7.3,14.6c-0.7,1.4-1.1,3.1-1.1,4.7C276,143.3,280.7,148,286.5,148z M284.3,136.4l3.7-7.5l3.7,7.5c0.2,0.3,0.3,0.7,0.3,1.1
	c0,1.4-1.1,2.5-2.5,2.5h-3.1c-1.4,0-2.5-1.1-2.5-2.5C284,137.1,284.1,136.8,284.3,136.4z"/>
</svg>
