<?xml version="1.0" encoding="utf-8"?>
<!-- Generator: Adobe Illustrator 24.0.0, SVG Export Plug-In . SVG Version: 6.00 Build 0)  -->
<svg version="1.1" id="outline" xmlns="http://www.w3.org/2000/svg" xmlns:xlink="http://www.w3.org/1999/xlink" x="0px" y="0px"
	 viewBox="0 0 340 340" style="enable-background:new 0 0 340 340;" xml:space="preserve">
<g>
	<path d="M328.2,235.7v-22.7v-73.5c0-1.9-1.6-3.5-3.5-3.5h-42.2v-27.5h15.2c1.1,0,2.1-0.5,2.7-1.3s0.9-1.9,0.7-2.9l-7.8-35.6
		c-1.1-5-5.6-8.7-10.8-8.7H261c-5.2,0-9.7,3.7-10.8,8.7l-7.8,35.6c-0.2,1,0,2.1,0.7,2.9s1.7,1.3,2.7,1.3H261V136h-23.2
		c-1.9,0-3.5,1.6-3.5,3.5s1.6,3.5,3.5,3.5h83.5v29.8h-49.5c-1.9,0-3.5,1.6-3.5,3.5s1.6,3.5,3.5,3.5h49.5v29.8h-42.9
		c-1.9,0-3.5,1.6-3.5,3.5s1.6,3.5,3.5,3.5h17.3c0.3,0.2,0.6,0.3,0.9,0.4c15,3.7,13.8,17.9,13.8,18.5c-0.1,1,0.2,2,0.9,2.7
		c0.7,0.7,1.6,1.1,2.6,1.1h11C326.7,239.1,328.2,237.6,328.2,235.7z M257,70.1c0.4-1.9,2.1-3.2,4-3.2h21.5c1.9,0,3.6,1.4,4,3.2
		l6.9,31.4h-43.3L257,70.1z M267.9,108.4h7.7V136h-7.7V108.4z M317.3,232.2c-0.4-4.8-2.2-11-7.1-15.7h11.1v15.7H317.3z"/>
	<path d="M15.3,280.1h14.2c1.8,0,3.3-1.4,3.5-3.1c0.1-1,2.9-25.2,23.8-30c0.1,0,0.2-0.1,0.3-0.1h163.5c0.1,0,0.2,0.1,0.3,0.1
		c21,4.8,23.8,28.9,23.9,30c0.2,1.8,1.7,3.1,3.5,3.1h14.2c1.9,0,3.5-1.6,3.5-3.5v-33.2v0v-29.5v-13.7c0-7-2.6-13.7-7.3-19
		c-11.5-12.8-27.4-23.2-35.5-28c2.5-2.4,4.1-5.7,4.1-9.4c0-6.5-2.8-12.7-7.4-16.9v-19.3c0-10.8-8.8-19.7-19.7-19.7H77.6
		c-10.8,0-19.7,8.8-19.7,19.7v19.3c-4.6,4.2-7.4,10.4-7.4,16.9c0,3.7,1.6,7,4.1,9.4c-8.1,4.9-23.9,15.2-35.5,28
		c-4.7,5.2-7.3,12-7.3,19v13.7v29.5v0v33.2C11.8,278.5,13.3,280.1,15.3,280.1z M259,240H18.7v-22.5H259V240z M26.5,273.1h-7.8v-26.2
		h22.5C31.2,255,27.6,267.4,26.5,273.1z M251.2,273.1c-1.1-5.8-4.7-18.1-14.8-26.2H259v26.2H251.2z M214.2,149.8h-71.9v-5
		c0-10.1,7.7-18.4,17.5-18.9c0.4,0,0.7,0,1.1,0h30.2c0,0,0.1,0,0.1,0c0.1,0,11.4-0.4,20.1,3.7c5.4,2.6,8.9,8.2,8.9,14.3
		C220.2,147.1,217.5,149.8,214.2,149.8z M77.6,94.9h122.5c7,0,12.7,5.7,12.7,12.7v15c-9.6-4-20.6-3.7-21.7-3.7h-30.1
		c-0.5,0-1,0-1.5,0c-8.8,0.4-16.4,5.5-20.6,12.8c-4.2-7.3-11.8-12.3-20.6-12.8c-0.5,0-1,0-1.5,0H86.6c-1.1,0-12.1-0.3-21.7,3.7v-15
		C64.9,100.6,70.6,94.9,77.6,94.9z M66.3,129.6c7.2-3.4,16.3-3.7,19.2-3.7c0.6,0,0.9,0,0.9,0c0,0,0.1,0,0.1,0h30.2
		c0.4,0,0.7,0,1.1,0c9.8,0.5,17.5,8.8,17.5,18.9v5H63.5c-3.3,0-6-2.7-6-6C57.5,137.7,60.9,132.1,66.3,129.6z M24.3,185.9
		c13.6-15.1,34.2-27,38.1-29.2c0.3,0,0.7,0.1,1.1,0.1h75.4h75.4c0.4,0,0.7,0,1.1-0.1c3.9,2.2,24.6,14.1,38.1,29.2
		c3.6,4,5.5,9.1,5.5,14.3v10.2H18.7v-10.2C18.7,195,20.7,189.9,24.3,185.9z"/>
	<circle cx="280.2" cy="157" r="3.5"/>
	<circle cx="280.2" cy="195.4" r="3.5"/>
</g>
</svg>
