<svg width="34" height="29" viewBox="0 0 34 29" fill="none" xmlns="http://www.w3.org/2000/svg">
<path d="M17 13C21.9375 13 29 20.6875 29 25.5625C29 27.75 27.3125 29 24.5 29C21.4375 29 19.4375 27.4375 17 27.4375C14.5 27.4375 12.5 29 9.4375 29C6.625 29 5 27.75 5 25.5625C5 20.6875 12 13 17 13ZM7.75 12.25C8.4375 14.4375 7.4375 16.5 5.625 16.9375C3.8125 17.375 1.8125 16 1.1875 13.8125C0.5 11.625 1.5 9.5625 3.3125 9.125C5.125 8.6875 7.125 10.0625 7.75 12.25ZM13.0625 10.9375C11.125 11.4375 8.9375 9.6875 8.1875 6.9375C7.5 4.25 8.4375 1.625 10.375 1.125C12.3125 0.625 14.5 2.375 15.25 5.125C15.9375 7.8125 15 10.4375 13.0625 10.9375ZM30.625 9.125C32.4375 9.5625 33.4375 11.625 32.75 13.8125C32.125 16 30.125 17.375 28.3125 16.9375C26.5 16.5 25.5 14.4375 26.1875 12.25C26.8125 10.0625 28.8125 8.6875 30.625 9.125ZM20.875 10.9375C18.9375 10.4375 18 7.8125 18.6875 5.125C19.4375 2.375 21.625 0.625 23.5625 1.125C25.5 1.625 26.4375 4.25 25.75 6.9375C25 9.6875 22.8125 11.4375 20.875 10.9375Z" fill="#949087"/>
</svg>
