<svg width="48" height="48" viewBox="0 0 48 48" fill="none" xmlns="http://www.w3.org/2000/svg">
<rect width="48" height="48" fill="#F89920"/>
<path d="M26.3 16.72L22.74 31H20.92L18.38 21.64C18.3 21.36 18.22 21.0733 18.14 20.78C18.0733 20.4867 18.0067 20.2067 17.94 19.94C17.8733 19.6733 17.82 19.4467 17.78 19.26C17.74 19.06 17.7133 18.9133 17.7 18.82C17.6867 18.9133 17.66 19.06 17.62 19.26C17.58 19.4467 17.5333 19.6733 17.48 19.94C17.4267 20.2067 17.36 20.4933 17.28 20.8C17.2133 21.0933 17.14 21.3933 17.06 21.7L14.58 31H12.74L9.2 16.72H11.06L13.12 25.44C13.1867 25.7467 13.2533 26.0533 13.32 26.36C13.3867 26.6533 13.44 26.9467 13.48 27.24C13.5333 27.52 13.58 27.7933 13.62 28.06C13.6733 28.3267 13.7133 28.5867 13.74 28.84C13.78 28.5733 13.82 28.3 13.86 28.02C13.9133 27.74 13.9667 27.4533 14.02 27.16C14.0867 26.8533 14.1533 26.5467 14.22 26.24C14.3 25.9333 14.38 25.6333 14.46 25.34L16.78 16.72H18.62L21.04 25.4C21.12 25.7067 21.1933 26.02 21.26 26.34C21.34 26.6467 21.4067 26.9467 21.46 27.24C21.5267 27.5333 21.58 27.82 21.62 28.1C21.6733 28.3667 21.72 28.6133 21.76 28.84C21.8 28.5067 21.8533 28.16 21.92 27.8C21.9867 27.4267 22.06 27.04 22.14 26.64C22.2333 26.24 22.3267 25.8333 22.42 25.42L24.46 16.72H26.3ZM33.9038 18.1C33.1971 18.1 32.5638 18.2333 32.0038 18.5C31.4438 18.7533 30.9638 19.1333 30.5638 19.64C30.1771 20.1333 29.8771 20.74 29.6638 21.46C29.4638 22.1667 29.3638 22.9667 29.3638 23.86C29.3638 25.0333 29.5304 26.0533 29.8638 26.92C30.1971 27.7867 30.6971 28.4533 31.3638 28.92C32.0438 29.3867 32.8838 29.62 33.8838 29.62C34.4704 29.62 35.0238 29.5667 35.5438 29.46C36.0771 29.3533 36.6038 29.22 37.1238 29.06V30.62C36.6171 30.82 36.0971 30.9667 35.5638 31.06C35.0304 31.1533 34.3904 31.2 33.6438 31.2C32.2704 31.2 31.1238 30.9 30.2038 30.3C29.2971 29.7 28.6171 28.8467 28.1638 27.74C27.7104 26.6333 27.4838 25.3333 27.4838 23.84C27.4838 22.76 27.6238 21.7733 27.9038 20.88C28.1838 19.9867 28.5971 19.2133 29.1438 18.56C29.6904 17.9067 30.3638 17.4067 31.1638 17.06C31.9638 16.7 32.8838 16.52 33.9238 16.52C34.6038 16.52 35.2638 16.5933 35.9038 16.74C36.5438 16.8867 37.1238 17.0933 37.6437 17.36L36.9438 18.88C36.5304 18.68 36.0638 18.5 35.5438 18.34C35.0371 18.18 34.4904 18.1 33.9038 18.1Z" fill="white"/>
<path d="M26.3 16.72L27.2703 16.9619L27.5799 15.72H26.3V16.72ZM22.74 31V32H23.5213L23.7103 31.2419L22.74 31ZM20.92 31L19.9549 31.2619L20.1552 32H20.92V31ZM18.38 21.64L19.3452 21.3781L19.3415 21.3653L18.38 21.64ZM18.14 20.78L17.1649 21.0016L17.1696 21.0225L17.1752 21.0431L18.14 20.78ZM17.78 19.26L16.7993 19.4561L16.8022 19.4695L17.78 19.26ZM17.7 18.82L18.69 18.6786L16.7101 18.6786L17.7 18.82ZM17.62 19.26L18.5979 19.4695L18.6006 19.4561L17.62 19.26ZM17.28 20.8L16.3124 20.5476L16.3084 20.5629L16.3049 20.5784L17.28 20.8ZM17.06 21.7L18.0262 21.9577L18.0276 21.9524L17.06 21.7ZM14.58 31V32H15.3483L15.5462 31.2577L14.58 31ZM12.74 31L11.7694 31.2406L11.9576 32H12.74V31ZM9.2 16.72V15.72H7.92183L8.22938 16.9606L9.2 16.72ZM11.06 16.72L12.0332 16.4901L11.8513 15.72H11.06V16.72ZM13.12 25.44L14.0972 25.2276L14.0953 25.2188L14.0932 25.2101L13.12 25.44ZM13.32 26.36L12.3428 26.5724L12.3449 26.5816L13.32 26.36ZM13.48 27.24L12.4892 27.3751L12.4927 27.4012L12.4977 27.4271L13.48 27.24ZM13.62 28.06L12.6311 28.2083L12.6347 28.2323L12.6394 28.2561L13.62 28.06ZM13.74 28.84L12.7455 28.9447L14.7289 28.9883L13.74 28.84ZM13.86 28.02L12.8777 27.8329L12.8733 27.8556L12.8701 27.8786L13.86 28.02ZM14.02 27.16L13.0428 26.9476L13.0392 26.9643L13.0361 26.9811L14.02 27.16ZM14.22 26.24L13.2524 25.9876L13.2472 26.0075L13.2428 26.0276L14.22 26.24ZM14.46 25.34L15.4248 25.6031L15.4256 25.5999L14.46 25.34ZM16.78 16.72V15.72H16.0136L15.8144 16.4601L16.78 16.72ZM18.62 16.72L19.5833 16.4514L19.3793 15.72H18.62V16.72ZM21.04 25.4L22.0076 25.1476L22.0055 25.1395L22.0033 25.1314L21.04 25.4ZM21.26 26.34L20.281 26.544L20.2861 26.5683L20.2924 26.5924L21.26 26.34ZM21.46 27.24L20.4761 27.4189L20.48 27.4403L20.4849 27.4616L21.46 27.24ZM21.62 28.1L20.6301 28.2414L20.634 28.2689L20.6394 28.2961L21.62 28.1ZM21.76 28.84L20.7752 29.0138L22.7529 28.9591L21.76 28.84ZM21.92 27.8L22.9033 27.9821L22.9044 27.9758L21.92 27.8ZM22.14 26.64L21.1662 26.4128L21.1625 26.4283L21.1594 26.4439L22.14 26.64ZM22.42 25.42L21.4464 25.1917L21.4446 25.1997L22.42 25.42ZM24.46 16.72V15.72H23.6674L23.4864 16.4917L24.46 16.72ZM25.3297 16.4781L21.7697 30.7581L23.7103 31.2419L27.2703 16.9619L25.3297 16.4781ZM22.74 30H20.92V32H22.74V30ZM21.8851 30.7381L19.3451 21.3781L17.4149 21.9019L19.9549 31.2619L21.8851 30.7381ZM19.3415 21.3653C19.2627 21.0893 19.1838 20.8065 19.1048 20.5169L17.1752 21.0431C17.2562 21.3402 17.3373 21.6307 17.4185 21.9147L19.3415 21.3653ZM19.1151 20.5584C19.047 20.2587 18.9787 19.9717 18.9101 19.6975L16.9699 20.1825C17.0346 20.4416 17.0996 20.7146 17.1649 21.0016L19.1151 20.5584ZM18.9101 19.6975C18.8451 19.4374 18.7947 19.2225 18.7578 19.0505L16.8022 19.4695C16.8453 19.6709 16.9015 19.9092 16.9699 20.1825L18.9101 19.6975ZM18.7606 19.0639C18.721 18.8662 18.6991 18.7426 18.69 18.6786L16.7101 18.9614C16.7276 19.0841 16.759 19.2538 16.7994 19.4561L18.7606 19.0639ZM16.7101 18.6786C16.7009 18.7426 16.679 18.8662 16.6394 19.0639L18.6006 19.4561C18.641 19.2538 18.6724 19.0841 18.6899 18.9614L16.7101 18.6786ZM16.6422 19.0505C16.6009 19.243 16.5533 19.4744 16.4994 19.7439L18.4606 20.1361C18.5134 19.8722 18.5591 19.6503 18.5978 19.4695L16.6422 19.0505ZM16.4994 19.7439C16.4504 19.9889 16.3883 20.2566 16.3124 20.5476L18.2476 21.0524C18.3317 20.7301 18.4029 20.4244 18.4606 20.1361L16.4994 19.7439ZM16.3049 20.5784C16.2407 20.8609 16.1699 21.1506 16.0924 21.4476L18.0276 21.9524C18.1101 21.6361 18.186 21.3258 18.2551 21.0216L16.3049 20.5784ZM16.0938 21.4423L13.6138 30.7423L15.5462 31.2577L18.0262 21.9577L16.0938 21.4423ZM14.58 30H12.74V32H14.58V30ZM13.7106 30.7594L10.1706 16.4794L8.22938 16.9606L11.7694 31.2406L13.7106 30.7594ZM9.2 17.72H11.06V15.72H9.2V17.72ZM10.0868 16.9499L12.1468 25.6699L14.0932 25.2101L12.0332 16.4901L10.0868 16.9499ZM12.1428 25.6524C12.2095 25.9591 12.2762 26.2658 12.3428 26.5724L14.2972 26.1476C14.2305 25.8409 14.1638 25.5342 14.0972 25.2276L12.1428 25.6524ZM12.3449 26.5816C12.4051 26.8468 12.4532 27.1113 12.4892 27.3751L14.4708 27.1049C14.4268 26.782 14.3682 26.4598 14.2951 26.1384L12.3449 26.5816ZM12.4977 27.4271C12.5487 27.695 12.5931 27.9553 12.6311 28.2083L14.6089 27.9117C14.5669 27.6313 14.518 27.345 14.4623 27.0529L12.4977 27.4271ZM12.6394 28.2561C12.6871 28.4945 12.7223 28.724 12.7455 28.9447L14.7345 28.7353C14.7044 28.4493 14.6596 28.1588 14.6006 27.8639L12.6394 28.2561ZM14.7289 28.9883C14.7693 28.7193 14.8096 28.4436 14.8499 28.1614L12.8701 27.8786C12.8304 28.1564 12.7907 28.4274 12.7511 28.6917L14.7289 28.9883ZM14.8423 28.2071C14.8962 27.9243 14.9501 27.6348 15.0039 27.3389L13.0361 26.9811C12.9833 27.2718 12.9304 27.5557 12.8777 27.8329L14.8423 28.2071ZM14.9972 27.3724C15.015 27.2903 14.9918 27.397 15.0097 27.3149C15.0275 27.2328 15.0043 27.3395 15.0222 27.2574C15.04 27.1753 15.0168 27.282 15.0347 27.1999C15.0348 27.1993 15.0349 27.1987 15.0351 27.1981C15.0352 27.1975 15.0353 27.1969 15.0355 27.1963C15.0356 27.1957 15.0357 27.1951 15.0358 27.1945C15.036 27.1939 15.0361 27.1933 15.0362 27.1927C15.0364 27.1921 15.0365 27.1915 15.0366 27.1909C15.0368 27.1903 15.0369 27.1897 15.037 27.1891C15.0372 27.1885 15.0373 27.188 15.0374 27.1874C15.0375 27.1868 15.0377 27.1862 15.0378 27.1856C15.0379 27.185 15.0381 27.1844 15.0382 27.1838C15.0383 27.1832 15.0385 27.1826 15.0386 27.182C15.0387 27.1814 15.0388 27.1808 15.039 27.1802C15.0391 27.1796 15.0392 27.179 15.0394 27.1784C15.0395 27.1778 15.0396 27.1772 15.0398 27.1766C15.0399 27.176 15.04 27.1754 15.0401 27.1748C15.0403 27.1742 15.0404 27.1736 15.0405 27.173C15.0407 27.1724 15.0408 27.1718 15.0409 27.1712C15.0411 27.1706 15.0412 27.17 15.0413 27.1694C15.0414 27.1688 15.0416 27.1682 15.0417 27.1676C15.0418 27.167 15.042 27.1664 15.0421 27.1658C15.0422 27.1652 15.0424 27.1646 15.0425 27.164C15.0426 27.1634 15.0427 27.1628 15.0429 27.1622C15.043 27.1616 15.0431 27.161 15.0433 27.1604C15.0434 27.1598 15.0435 27.1592 15.0437 27.1586C15.0438 27.158 15.0439 27.1574 15.0441 27.1568C15.0442 27.1562 15.0443 27.1556 15.0444 27.155C15.0446 27.1544 15.0447 27.1538 15.0448 27.1532C15.045 27.1526 15.0451 27.152 15.0452 27.1514C15.0454 27.1508 15.0455 27.1502 15.0456 27.1496C15.0457 27.149 15.0459 27.1484 15.046 27.1478C15.0461 27.1472 15.0463 27.1466 15.0464 27.146C15.0465 27.1454 15.0467 27.1448 15.0468 27.1442C15.0469 27.1436 15.047 27.143 15.0472 27.1424C15.065 27.0603 15.0543 27.1095 15.0722 27.0274C15.0723 27.0268 15.0724 27.0262 15.0726 27.0256C15.0727 27.025 15.0728 27.0244 15.073 27.0238C15.0731 27.0232 15.0732 27.0226 15.0733 27.022C15.0735 27.0214 15.0736 27.0208 15.0737 27.0202C15.0739 27.0196 15.074 27.019 15.0741 27.0184C15.0743 27.0178 15.0744 27.0172 15.0745 27.0166C15.0747 27.016 15.0748 27.0155 15.0749 27.0149C15.075 27.0143 15.0752 27.0137 15.0753 27.0131C15.0754 27.0125 15.0756 27.0119 15.0757 27.0113C15.0758 27.0107 15.076 27.0101 15.0761 27.0095C15.0762 27.0089 15.0763 27.0083 15.0765 27.0077C15.0766 27.0071 15.0767 27.0065 15.0769 27.0059C15.077 27.0053 15.0771 27.0047 15.0773 27.0041C15.0774 27.0035 15.0775 27.0029 15.0776 27.0023C15.0778 27.0017 15.0779 27.0011 15.078 27.0005C15.0782 26.9999 15.0783 26.9993 15.0784 26.9987C15.0786 26.9981 15.0787 26.9975 15.0788 26.9969C15.0789 26.9963 15.0791 26.9957 15.0792 26.9951C15.0793 26.9945 15.0795 26.9939 15.0796 26.9933C15.0797 26.9927 15.0799 26.9921 15.08 26.9915C15.0801 26.9909 15.0802 26.9903 15.0804 26.9897C15.0805 26.9891 15.0806 26.9885 15.0808 26.9879C15.0809 26.9873 15.081 26.9867 15.0812 26.9861C15.0813 26.9855 15.0814 26.9849 15.0816 26.9843C15.0817 26.9837 15.0818 26.9831 15.0819 26.9825C15.0821 26.9819 15.0822 26.9813 15.0823 26.9807C15.0825 26.9801 15.0826 26.9795 15.0827 26.9789C15.0829 26.9783 15.083 26.9777 15.0831 26.9771C15.0832 26.9765 15.0834 26.9759 15.0835 26.9753C15.0836 26.9747 15.0838 26.9741 15.0839 26.9735C15.084 26.9729 15.0842 26.9723 15.0843 26.9717C15.0844 26.9711 15.0845 26.9705 15.0847 26.9699C15.0848 26.9693 15.0849 26.9687 15.0851 26.9681C15.0852 26.9675 15.0853 26.9669 15.0855 26.9663C15.0856 26.9657 15.0857 26.9651 15.0858 26.9645C15.086 26.9639 15.0861 26.9633 15.0862 26.9627C15.0864 26.9621 15.0865 26.9615 15.0866 26.9609C15.0868 26.9603 15.0869 26.9597 15.087 26.9591C15.0872 26.9585 15.0873 26.958 15.0874 26.9574C15.0875 26.9568 15.0877 26.9562 15.0878 26.9556C15.0879 26.955 15.0881 26.9544 15.0882 26.9538C15.0883 26.9532 15.0885 26.9526 15.0886 26.952C15.0887 26.9514 15.0888 26.9508 15.089 26.9502C15.0891 26.9496 15.0892 26.949 15.0894 26.9484C15.0895 26.9478 15.0896 26.9472 15.0898 26.9466C15.0899 26.946 15.09 26.9454 15.0901 26.9448C15.0903 26.9442 15.0904 26.9436 15.0905 26.943C15.0907 26.9424 15.0908 26.9418 15.0909 26.9412C15.0911 26.9406 15.0912 26.94 15.0913 26.9394C15.0914 26.9388 15.0916 26.9382 15.0917 26.9376C15.0918 26.937 15.092 26.9364 15.0921 26.9358C15.0922 26.9352 15.0924 26.9346 15.0925 26.934C15.0926 26.9334 15.0927 26.9328 15.0929 26.9322C15.093 26.9316 15.0931 26.931 15.0933 26.9304C15.0934 26.9298 15.0935 26.9292 15.0937 26.9286C15.0938 26.928 15.0939 26.9274 15.0941 26.9268C15.0942 26.9262 15.0943 26.9256 15.0944 26.925C15.0946 26.9244 15.0947 26.9238 15.0948 26.9232C15.095 26.9226 15.0951 26.922 15.0952 26.9214C15.0954 26.9208 15.0955 26.9202 15.0956 26.9196C15.0957 26.919 15.0959 26.9184 15.096 26.9178C15.0961 26.9172 15.0963 26.9166 15.0964 26.916C15.0965 26.9154 15.0967 26.9148 15.0968 26.9142C15.0969 26.9136 15.097 26.913 15.0972 26.9124C15.1409 26.7111 15.1534 26.6537 15.1972 26.4524L13.2428 26.0276C13.2207 26.1295 13.215 26.1556 13.1928 26.2576C13.1707 26.3595 13.165 26.3856 13.1428 26.4876C13.1378 26.5105 13.1416 26.4933 13.1366 26.5163C13.1316 26.5393 13.1353 26.5221 13.1303 26.5451C13.1253 26.568 13.1291 26.5508 13.1241 26.5738C13.1191 26.5968 13.1228 26.5796 13.1178 26.6026C13.1128 26.6255 13.1166 26.6083 13.1116 26.6313C13.1066 26.6543 13.1103 26.6371 13.1053 26.6601C13.1003 26.683 13.1041 26.6658 13.0991 26.6888C13.0941 26.7118 13.0978 26.6946 13.0928 26.7176C13.0878 26.7405 13.0916 26.7233 13.0866 26.7463C13.0816 26.7693 13.0853 26.7521 13.0803 26.7751C13.0789 26.7815 13.0786 26.7831 13.0772 26.7894C13.0722 26.8124 13.0791 26.7808 13.0741 26.8038C13.0691 26.8268 13.0759 26.7952 13.0709 26.8182C13.066 26.8412 13.0728 26.8096 13.0678 26.8326C13.0628 26.8555 13.0697 26.824 13.0647 26.8469C13.0597 26.8699 13.0666 26.8383 13.0616 26.8613C13.0566 26.8843 13.0634 26.8527 13.0584 26.8757C13.0535 26.8987 13.0603 26.8671 13.0553 26.8901C13.0503 26.913 13.0572 26.8815 13.0522 26.9044C13.0472 26.9274 13.0541 26.8958 13.0491 26.9188C13.0441 26.9418 13.0509 26.9102 13.0459 26.9332C13.041 26.9562 13.0478 26.9246 13.0428 26.9476L14.9972 27.3724ZM15.1876 26.4924C15.2667 26.1892 15.3458 25.8927 15.4248 25.6031L13.4952 25.0769C13.4142 25.3739 13.3333 25.6775 13.2524 25.9876L15.1876 26.4924ZM15.4256 25.5999L17.7456 16.9799L15.8144 16.4601L13.4944 25.0801L15.4256 25.5999ZM16.78 17.72H18.62V15.72H16.78V17.72ZM17.6567 16.9886L20.0767 25.6686L22.0033 25.1314L19.5833 16.4514L17.6567 16.9886ZM20.0724 25.6524C20.1481 25.9425 20.2176 26.2397 20.281 26.544L22.239 26.136C22.169 25.8003 22.0919 25.4708 22.0076 25.1476L20.0724 25.6524ZM20.2924 26.5924C20.3664 26.8763 20.4276 27.1517 20.4761 27.4189L22.4439 27.0611C22.3858 26.7416 22.3136 26.417 22.2276 26.0876L20.2924 26.5924ZM20.4849 27.4616C20.5459 27.7301 20.5941 27.99 20.6301 28.2414L22.61 27.9586C22.5659 27.65 22.5074 27.3366 22.4351 27.0184L20.4849 27.4616ZM20.6394 28.2961C20.6915 28.5566 20.7367 28.7958 20.7752 29.0138L22.7448 28.6662C22.7033 28.4309 22.6551 28.1767 22.6006 27.9039L20.6394 28.2961ZM22.7529 28.9591C22.7901 28.6487 22.8401 28.3231 22.9033 27.9821L20.9367 27.6179C20.8665 27.9969 20.8099 28.3647 20.7671 28.7209L22.7529 28.9591ZM22.9044 27.9758C22.9698 27.6097 23.0418 27.2299 23.1206 26.8361L21.1594 26.4439C21.0782 26.8501 21.0035 27.2436 20.9356 27.6242L22.9044 27.9758ZM23.1138 26.8672C23.2077 26.4648 23.3016 26.0558 23.3954 25.6403L21.4446 25.1997C21.3517 25.6108 21.2589 26.0152 21.1662 26.4128L23.1138 26.8672ZM23.3936 25.6483L25.4336 16.9483L23.4864 16.4917L21.4464 25.1917L23.3936 25.6483ZM24.46 17.72H26.3V15.72H24.46V17.72ZM32.0038 18.5L32.4159 19.4111L32.4248 19.4071L32.4337 19.4029L32.0038 18.5ZM30.5638 19.64L29.7789 19.0204L29.7767 19.0231L30.5638 19.64ZM29.6638 21.46L28.7049 21.1759L28.7015 21.1877L29.6638 21.46ZM29.8638 26.92L30.7971 26.561L30.7971 26.561L29.8638 26.92ZM31.3638 28.92L30.7903 29.7393L30.7979 29.7445L31.3638 28.92ZM35.5438 29.46L35.3476 28.4794L35.3428 28.4804L35.5438 29.46ZM37.1238 29.06H38.1238V27.706L36.8297 28.1042L37.1238 29.06ZM37.1238 30.62L37.4909 31.5502L38.1238 31.3004V30.62H37.1238ZM35.5638 31.06L35.3914 30.075L35.3914 30.075L35.5638 31.06ZM30.2038 30.3L29.6519 31.134L29.6575 31.1376L30.2038 30.3ZM28.1638 27.74L29.0891 27.3609L29.0891 27.3609L28.1638 27.74ZM27.9038 20.88L26.9495 20.5809L26.9495 20.5809L27.9038 20.88ZM29.1438 18.56L28.3768 17.9183L28.3768 17.9183L29.1438 18.56ZM31.1638 17.06L31.5614 17.9776L31.5741 17.9719L31.1638 17.06ZM35.9038 16.74L36.1271 15.7653L36.1271 15.7653L35.9038 16.74ZM37.6437 17.36L38.5521 17.7783L38.953 16.9076L38.1001 16.4702L37.6437 17.36ZM36.9438 18.88L36.5082 19.7802L37.4257 20.2241L37.8521 19.2983L36.9438 18.88ZM35.5438 18.34L35.2426 19.2936L35.2497 19.2958L35.5438 18.34ZM33.9038 17.1C33.0691 17.1 32.2857 17.2582 31.5738 17.5971L32.4337 19.4029C32.8418 19.2085 33.3251 19.1 33.9038 19.1V17.1ZM31.5916 17.5889C30.8784 17.9115 30.2729 18.3946 29.7789 19.0204L31.3486 20.2596C31.6546 19.872 32.0091 19.5952 32.4159 19.4111L31.5916 17.5889ZM29.7767 19.0231C29.2986 19.6331 28.9471 20.3585 28.705 21.1759L30.6225 21.7441C30.807 21.1215 31.0556 20.6336 31.3508 20.2569L29.7767 19.0231ZM28.7015 21.1877C28.4717 21.9996 28.3638 22.8937 28.3638 23.86H30.3638C30.3638 23.0396 30.4558 22.3337 30.626 21.7323L28.7015 21.1877ZM28.3638 23.86C28.3638 25.125 28.5431 26.272 28.9304 27.279L30.7971 26.561C30.5177 25.8347 30.3638 24.9416 30.3638 23.86H28.3638ZM28.9304 27.279C29.3248 28.3044 29.9383 29.1428 30.7903 29.7392L31.9372 28.1008C31.4559 27.7638 31.0694 27.2689 30.7971 26.561L28.9304 27.279ZM30.7979 29.7445C31.6771 30.3479 32.7253 30.62 33.8838 30.62V28.62C33.0422 28.62 32.4104 28.4255 31.9296 28.0955L30.7979 29.7445ZM33.8838 30.62C34.5309 30.62 35.1521 30.5612 35.7447 30.4396L35.3428 28.4804C34.8954 28.5722 34.4099 28.62 33.8838 28.62V30.62ZM35.7399 30.4406C36.3063 30.3273 36.8656 30.1857 37.4178 30.0158L36.8297 28.1042C36.3419 28.2543 35.8479 28.3794 35.3476 28.4794L35.7399 30.4406ZM36.1238 29.06V30.62H38.1238V29.06H36.1238ZM36.7566 29.6898C36.3124 29.8652 35.8577 29.9934 35.3914 30.075L35.7361 32.045C36.3365 31.94 36.9217 31.7748 37.4909 31.5502L36.7566 29.6898ZM35.3914 30.075C34.9317 30.1554 34.3526 30.2 33.6438 30.2V32.2C34.4282 32.2 35.1291 32.1513 35.7361 32.045L35.3914 30.075ZM33.6438 30.2C32.4159 30.2 31.4712 29.9327 30.75 29.4624L29.6575 31.1376C30.7763 31.8673 32.125 32.2 33.6438 32.2V30.2ZM30.7556 29.4661C30.0329 28.9878 29.4743 28.3013 29.0891 27.3609L27.2384 28.1191C27.7598 29.392 28.5613 30.4122 29.6519 31.1339L30.7556 29.4661ZM29.0891 27.3609C28.6957 26.4004 28.4838 25.2345 28.4838 23.84H26.4838C26.4838 25.4321 26.7252 26.8662 27.2384 28.1191L29.0891 27.3609ZM28.4838 23.84C28.4838 22.8462 28.6126 21.9621 28.858 21.1791L26.9495 20.5809C26.6349 21.5846 26.4838 22.6738 26.4838 23.84H28.4838ZM28.858 21.1791C29.1026 20.3987 29.4564 19.7447 29.9107 19.2017L28.3768 17.9183C27.7378 18.682 27.2649 19.5746 26.9495 20.5809L28.858 21.1791ZM29.9107 19.2017C30.355 18.6707 30.9008 18.2638 31.5614 17.9776L30.7661 16.1424C29.8267 16.5495 29.0258 17.1426 28.3768 17.9183L29.9107 19.2017ZM31.5741 17.9719C32.2234 17.6797 32.9993 17.52 33.9238 17.52V15.52C32.7682 15.52 31.7041 15.7203 30.7534 16.1481L31.5741 17.9719ZM33.9238 17.52C34.5313 17.52 35.1162 17.5854 35.6804 17.7147L36.1271 15.7653C35.4113 15.6012 34.6762 15.52 33.9238 15.52V17.52ZM35.6804 17.7147C36.2493 17.8451 36.7497 18.0253 37.1874 18.2498L38.1001 16.4702C37.4978 16.1613 36.8382 15.9282 36.1271 15.7653L35.6804 17.7147ZM36.7354 16.9417L36.0354 18.4617L37.8521 19.2983L38.5521 17.7783L36.7354 16.9417ZM37.3793 17.9798C36.9129 17.7541 36.3977 17.5565 35.8378 17.3842L35.2497 19.2958C35.7298 19.4435 36.148 19.6059 36.5082 19.7802L37.3793 17.9798ZM35.8449 17.3864C35.2312 17.1926 34.582 17.1 33.9038 17.1V19.1C34.3988 19.1 34.8429 19.1674 35.2426 19.2936L35.8449 17.3864Z" fill="white"/>
</svg>
