<svg width="77" height="27" viewBox="0 0 77 27" fill="none" xmlns="http://www.w3.org/2000/svg">
<rect width="77" height="27" rx="2" fill="#B35959"/>
<path d="M16.8 17.352H29.92V18.456H16.8V17.352ZM22.672 14.264H23.984V17.816H22.672V14.264ZM18.4 6.84H28.288V11.224H19.744V14.12H18.432V10.168H26.976V7.928H18.4V6.84ZM18.432 13.56H28.624V14.648H18.432V13.56ZM32.9428 7.304H42.2548V8.392H32.9428V7.304ZM31.5188 17.032H44.5908V18.136H31.5188V17.032ZM41.5348 7.304H42.8468V8.76C42.8468 9.368 42.8361 10.0187 42.8148 10.712C42.8041 11.3947 42.7614 12.152 42.6868 12.984C42.6121 13.816 42.4841 14.7547 42.3028 15.8L40.9588 15.656C41.1508 14.6747 41.2841 13.7733 41.3588 12.952C41.4441 12.1307 41.4921 11.3733 41.5028 10.68C41.5241 9.98667 41.5348 9.34667 41.5348 8.76V7.304ZM56.7655 5.784H58.0935V16.344H56.7655V5.784ZM48.7975 18.84H58.5415V19.928H48.7975V18.84ZM48.7975 15.272H50.1255V19.208H48.7975V15.272ZM50.3335 6.792C51.0588 6.792 51.7042 6.94133 52.2695 7.24C52.8348 7.53867 53.2828 7.96 53.6135 8.504C53.9442 9.03733 54.1095 9.65067 54.1095 10.344C54.1095 11.0373 53.9442 11.656 53.6135 12.2C53.2828 12.7333 52.8348 13.1547 52.2695 13.464C51.7042 13.7627 51.0588 13.912 50.3335 13.912C49.6188 13.912 48.9735 13.7627 48.3975 13.464C47.8322 13.1547 47.3842 12.7333 47.0535 12.2C46.7228 11.656 46.5575 11.0373 46.5575 10.344C46.5575 9.65067 46.7228 9.03733 47.0535 8.504C47.3842 7.96 47.8322 7.53867 48.3975 7.24C48.9735 6.94133 49.6188 6.792 50.3335 6.792ZM50.3335 7.944C49.8642 7.944 49.4428 8.04533 49.0695 8.248C48.6962 8.45067 48.3975 8.73333 48.1735 9.096C47.9602 9.45867 47.8535 9.87467 47.8535 10.344C47.8535 10.824 47.9602 11.2453 48.1735 11.608C48.3975 11.96 48.6962 12.2373 49.0695 12.44C49.4428 12.6427 49.8642 12.744 50.3335 12.744C50.8028 12.744 51.2242 12.6427 51.5975 12.44C51.9815 12.2373 52.2802 11.96 52.4935 11.608C52.7068 11.2453 52.8135 10.824 52.8135 10.344C52.8135 9.87467 52.7068 9.45867 52.4935 9.096C52.2802 8.73333 51.9815 8.45067 51.5975 8.248C51.2242 8.04533 50.8028 7.944 50.3335 7.944Z" fill="#F5F5F5"/>
</svg>
