<svg width="301" height="301" viewBox="0 0 301 301" fill="none" xmlns="http://www.w3.org/2000/svg">
<path d="M151.636 13.2309L150.714 13.184L153.75 6.05616L154.657 6.10229L156.955 13.5012L156.033 13.4543L154.174 7.22976L154.117 7.22687L151.636 13.2309ZM152.12 10.4109L155.837 10.5998L155.797 11.38L152.081 11.1912L152.12 10.4109Z" fill="black"/>
<path d="M167.11 14.4609C166.66 14.3946 166.28 14.2224 165.969 13.9445C165.659 13.6642 165.437 13.3012 165.304 12.8556C165.172 12.4077 165.148 11.898 165.232 11.3266C165.315 10.7598 165.485 10.2823 165.741 9.89409C165.997 9.50589 166.315 9.22376 166.695 9.04772C167.075 8.87168 167.493 8.81717 167.947 8.8842C168.298 8.93603 168.567 9.03553 168.754 9.1827C168.943 9.32787 169.08 9.48217 169.166 9.64562C169.255 9.80707 169.323 9.93912 169.37 10.0418L169.44 10.0522L169.832 7.39625L170.661 7.51857L169.6 14.7134L168.799 14.5952L168.921 13.7661L168.823 13.7516C168.747 13.841 168.642 13.9524 168.508 14.0857C168.373 14.2166 168.194 14.3253 167.968 14.4116C167.742 14.4957 167.456 14.5121 167.11 14.4609ZM167.332 13.7328C167.665 13.7818 167.959 13.7366 168.214 13.5972C168.469 13.4554 168.679 13.2387 168.844 12.9472C169.01 12.6533 169.123 12.3026 169.183 11.8951C169.242 11.4923 169.236 11.1311 169.163 10.8117C169.091 10.49 168.952 10.2279 168.748 10.0254C168.543 9.82055 168.273 9.69325 167.935 9.6435C167.584 9.59167 167.278 9.63864 167.017 9.78443C166.759 9.92822 166.549 10.1449 166.386 10.4344C166.227 10.722 166.119 11.0554 166.063 11.4348C166.006 11.8189 166.013 12.1766 166.084 12.5077C166.158 12.8368 166.297 13.111 166.501 13.3302C166.709 13.5474 166.985 13.6816 167.332 13.7328Z" fill="black"/>
<path d="M179.421 16.5729C178.943 16.4576 178.55 16.2426 178.243 15.9277C177.939 15.6134 177.735 15.227 177.631 14.7685C177.53 14.3106 177.545 13.8078 177.677 13.26C177.81 12.7076 178.026 12.2495 178.325 11.8857C178.627 11.5225 178.985 11.2702 179.399 11.1287C179.815 10.9879 180.262 10.9751 180.741 11.0903C181.22 11.2056 181.611 11.4204 181.916 11.7347C182.222 12.0496 182.426 12.4371 182.527 12.8973C182.63 13.3581 182.616 13.8646 182.483 14.417C182.351 14.9648 182.134 15.4192 181.833 15.7801C181.534 16.1416 181.176 16.3928 180.76 16.5336C180.346 16.6751 179.9 16.6881 179.421 16.5729ZM179.597 15.841C179.961 15.9285 180.283 15.9073 180.562 15.7774C180.842 15.6475 181.075 15.4442 181.261 15.1676C181.447 14.8909 181.582 14.5753 181.668 14.2209C181.753 13.8664 181.776 13.5226 181.737 13.1893C181.698 12.856 181.584 12.5667 181.395 12.3215C181.205 12.0762 180.929 11.9098 180.565 11.8223C180.201 11.7347 179.879 11.757 179.599 11.8892C179.319 12.0215 179.086 12.227 178.899 12.506C178.713 12.785 178.577 13.1017 178.491 13.4561C178.406 13.8106 178.383 14.1533 178.423 14.4843C178.463 14.8153 178.577 15.1022 178.767 15.3452C178.957 15.5881 179.234 15.7534 179.597 15.841Z" fill="black"/>
<path d="M189.255 18.9259L191.59 12.0383L192.384 12.3075L191.522 14.8499L191.589 14.8727C191.678 14.8028 191.797 14.7159 191.947 14.6118C192.101 14.5063 192.293 14.4317 192.526 14.388C192.761 14.3427 193.047 14.3772 193.383 14.4912C193.818 14.6387 194.165 14.8774 194.423 15.2074C194.681 15.5374 194.835 15.9335 194.886 16.3957C194.937 16.8578 194.87 17.3602 194.686 17.9028C194.501 18.4498 194.247 18.8925 193.925 19.2307C193.603 19.5667 193.241 19.7887 192.836 19.8967C192.433 20.0024 192.016 19.9823 191.586 19.8363C191.254 19.7238 191.007 19.5788 190.845 19.4013C190.683 19.2215 190.572 19.0428 190.513 18.865C190.454 18.685 190.411 18.5381 190.385 18.4242L190.291 18.3922L190.021 19.1859L189.255 18.9259ZM190.911 16.6076C190.778 16.9977 190.719 17.3613 190.732 17.6982C190.746 18.033 190.834 18.3217 190.997 18.5643C191.161 18.8047 191.401 18.9789 191.72 19.0869C192.052 19.1994 192.358 19.2058 192.639 19.1062C192.924 19.0051 193.172 18.8244 193.386 18.5643C193.602 18.3026 193.772 17.9879 193.897 17.6202C194.02 17.257 194.075 16.9107 194.062 16.5812C194.052 16.2502 193.963 15.9615 193.797 15.7151C193.633 15.4672 193.383 15.2863 193.047 15.1722C192.724 15.0628 192.425 15.0526 192.15 15.1418C191.876 15.2287 191.633 15.3989 191.422 15.6524C191.212 15.9036 191.041 16.222 190.911 16.6076Z" fill="black"/>
<path d="M202.849 23.9751C202.368 23.7629 202 23.4737 201.745 23.1076C201.494 22.7402 201.358 22.3233 201.339 21.8567C201.323 21.389 201.427 20.8996 201.653 20.3884C201.879 19.8773 202.17 19.4679 202.529 19.1602C202.89 18.8514 203.287 18.6616 203.719 18.5911C204.155 18.5193 204.598 18.5828 205.048 18.7816C205.308 18.8963 205.546 19.0529 205.761 19.2514C205.976 19.4498 206.144 19.6924 206.266 19.9791C206.389 20.2636 206.442 20.5923 206.425 20.9652C206.408 21.3381 206.297 21.7573 206.091 22.223L205.948 22.5479L202.101 20.8502L202.394 20.1875L205.461 21.541C205.585 21.2594 205.639 20.9834 205.624 20.7127C205.611 20.4431 205.53 20.1989 205.381 19.9803C205.234 19.7627 205.021 19.5927 204.744 19.4703C204.439 19.3356 204.141 19.2947 203.851 19.3479C203.564 19.3998 203.308 19.5197 203.083 19.7076C202.858 19.8954 202.684 20.1269 202.563 20.4019L202.368 20.8438C202.202 21.2206 202.126 21.5688 202.14 21.8882C202.157 22.2064 202.253 22.4853 202.427 22.725C202.601 22.9626 202.843 23.1497 203.153 23.2864C203.355 23.3753 203.549 23.4274 203.736 23.4428C203.927 23.4569 204.107 23.4329 204.277 23.3707C204.447 23.3063 204.603 23.2018 204.745 23.0572L205.394 23.5921C205.205 23.8089 204.976 23.972 204.708 24.0813C204.441 24.1885 204.148 24.2354 203.831 24.2221C203.514 24.2065 203.187 24.1242 202.849 23.9751Z" fill="black"/>
<path d="M217.058 30.6981L220.863 24.4998L222.957 25.7854C223.444 26.0838 223.787 26.4156 223.988 26.7806C224.192 27.1448 224.278 27.5211 224.245 27.9093C224.213 28.2975 224.084 28.6743 223.86 29.0395C223.636 29.4047 223.357 29.6907 223.025 29.8977C222.694 30.1059 222.32 30.2041 221.902 30.1921C221.486 30.1782 221.037 30.0232 220.554 29.7272L219.053 28.8058L219.462 28.14L220.939 29.0465C221.272 29.2509 221.574 29.3575 221.847 29.3663C222.119 29.3751 222.361 29.3096 222.572 29.1696C222.786 29.0288 222.969 28.8344 223.122 28.5862C223.274 28.338 223.364 28.0876 223.391 27.8349C223.42 27.5835 223.367 27.3397 223.232 27.1037C223.097 26.8656 222.861 26.6431 222.524 26.4363L221.205 25.6264L217.809 31.1588L217.058 30.6981Z" fill="black"/>
<path d="M230.525 35.351L228.562 37.9803L227.89 37.4789L232.241 31.6512L232.912 32.1526L231.315 34.2924L231.372 34.3349C231.643 34.1857 231.93 34.1211 232.234 34.1413C232.542 34.161 232.867 34.299 233.21 34.5553C233.508 34.7777 233.724 35.0322 233.859 35.3188C233.995 35.6036 234.033 35.9143 233.974 36.2511C233.918 36.5874 233.75 36.9434 233.469 37.319L231.396 40.0963L230.724 39.5949L232.764 36.8631C233.023 36.516 233.133 36.1803 233.095 35.856C233.059 35.5313 232.883 35.2507 232.566 35.0141C232.346 34.8498 232.114 34.749 231.87 34.7117C231.628 34.6758 231.391 34.7094 231.157 34.8127C230.925 34.9174 230.714 35.0968 230.525 35.351Z" fill="black"/>
<path d="M239.048 46.3009C238.68 45.9728 238.436 45.5975 238.315 45.1751C238.196 44.7542 238.199 44.3173 238.325 43.8642C238.452 43.4128 238.703 42.977 239.078 42.5568C239.457 42.1331 239.864 41.8319 240.3 41.6531C240.738 41.4759 241.173 41.423 241.604 41.4943C242.037 41.5671 242.438 41.7676 242.805 42.0957C243.172 42.4238 243.415 42.7983 243.535 43.2191C243.656 43.6416 243.652 44.0794 243.523 44.5326C243.396 44.9874 243.143 45.4267 242.765 45.8504C242.389 46.2705 241.983 46.5683 241.547 46.7438C241.113 46.9208 240.679 46.9728 240.246 46.9C239.814 46.8287 239.415 46.629 239.048 46.3009ZM239.549 45.7395C239.828 45.9887 240.121 46.1223 240.429 46.1402C240.737 46.1581 241.038 46.0891 241.333 45.9334C241.628 45.7777 241.897 45.5639 242.14 45.292C242.382 45.0201 242.566 44.7281 242.689 44.4161C242.812 44.104 242.848 43.7951 242.798 43.4894C242.747 43.1838 242.582 42.9063 242.303 42.6571C242.024 42.4079 241.73 42.2752 241.421 42.2591C241.111 42.2429 240.808 42.3136 240.512 42.4711C240.216 42.6286 239.946 42.8433 239.703 43.1152C239.46 43.3871 239.278 43.6782 239.156 43.9885C239.035 44.2988 239 44.6059 239.052 44.9098C239.105 45.2137 239.27 45.4902 239.549 45.7395Z" fill="black"/>
<path d="M251.913 50.7721L251.404 51.2681L249.43 49.2448L249.939 48.7488L251.913 50.7721ZM251.45 48.4259L252.035 49.0258L248.314 52.6563C248.144 52.8217 248.041 52.9702 248.004 53.102C247.971 53.2339 247.978 53.3528 248.025 53.4589C248.075 53.565 248.144 53.6621 248.23 53.7502C248.294 53.8163 248.351 53.8672 248.399 53.9029C248.448 53.937 248.488 53.9643 248.518 53.9848L248.098 54.6325C248.043 54.6067 247.973 54.5648 247.886 54.5069C247.798 54.4505 247.7 54.3664 247.591 54.2546C247.425 54.0851 247.3 53.8835 247.214 53.6498C247.13 53.4177 247.11 53.1755 247.155 52.9233C247.202 52.6727 247.339 52.4367 247.566 52.2152L251.45 48.4259Z" fill="black"/>
<path d="M252.487 59.5168C252.168 59.1416 251.977 58.7365 251.915 58.3015C251.854 57.8684 251.917 57.4359 252.103 57.0043C252.291 56.5744 252.599 56.177 253.029 55.8121C253.462 55.4441 253.906 55.2014 254.363 55.0838C254.82 54.9681 255.258 54.975 255.676 55.1046C256.095 55.236 256.464 55.4893 256.783 55.8645C257.102 56.2397 257.292 56.6439 257.353 57.0771C257.415 57.5121 257.351 57.9453 257.162 58.3767C256.974 58.8099 256.663 59.2105 256.23 59.5785C255.801 59.9434 255.358 60.1829 254.902 60.2971C254.448 60.4131 254.011 60.4054 253.592 60.274C253.174 60.1444 252.806 59.892 252.487 59.5168ZM253.06 59.0292C253.302 59.3142 253.575 59.4866 253.877 59.5464C254.18 59.6062 254.488 59.5791 254.801 59.4651C255.114 59.3511 255.41 59.176 255.688 58.9399C255.965 58.7038 256.187 58.4396 256.351 58.1472C256.516 57.8549 256.594 57.5539 256.586 57.2442C256.577 56.9345 256.452 56.6371 256.21 56.3521C255.967 56.0671 255.694 55.8955 255.39 55.8372C255.086 55.779 254.776 55.8076 254.461 55.9232C254.146 56.0387 253.849 56.2145 253.572 56.4507C253.294 56.6868 253.073 56.9502 252.91 57.241C252.747 57.5318 252.671 57.8313 252.681 58.1395C252.692 58.4476 252.818 58.7442 253.06 59.0292Z" fill="black"/>
<path d="M264.613 67.7646L264.002 67.2763C264.076 67.1648 264.135 67.037 264.177 66.8931C264.223 66.7497 264.232 66.5917 264.205 66.4191C264.177 66.2466 264.093 66.0612 263.951 65.8629C263.757 65.5914 263.532 65.4099 263.278 65.3185C263.026 65.2276 262.805 65.2503 262.615 65.3867C262.445 65.5079 262.356 65.6653 262.345 65.8588C262.335 66.0522 262.391 66.3033 262.513 66.612L262.823 67.3862C263.01 67.8517 263.074 68.2526 263.015 68.589C262.958 68.924 262.774 69.2023 262.464 69.4241C262.21 69.606 261.931 69.6953 261.626 69.6923C261.322 69.6911 261.02 69.6019 260.718 69.4247C260.417 69.2474 260.143 68.9864 259.896 68.6418C259.572 68.1893 259.403 67.7446 259.387 67.3076C259.371 66.8706 259.524 66.4776 259.844 66.1286L260.469 66.6598C260.274 66.8923 260.179 67.1369 260.182 67.3936C260.187 67.6523 260.289 67.9213 260.488 68.2004C260.716 68.5181 260.964 68.7221 261.232 68.8125C261.504 68.9034 261.735 68.8806 261.925 68.7442C262.079 68.634 262.17 68.4878 262.197 68.3056C262.225 68.122 262.186 67.9 262.078 67.6394L261.722 66.7761C261.528 66.301 261.464 65.8958 261.53 65.5605C261.599 65.2258 261.786 64.9489 262.092 64.7299C262.343 64.5508 262.614 64.4627 262.907 64.4655C263.202 64.4702 263.492 64.5556 263.776 64.7216C264.062 64.8895 264.317 65.1294 264.54 65.4413C264.854 65.8803 265.004 66.2938 264.991 66.6819C264.979 67.0719 264.853 67.4328 264.613 67.7646Z" fill="black"/>
<path d="M268.395 74.9242L265.578 76.6057L265.148 75.8861L271.393 72.1589L271.823 72.8786L269.529 74.2472L269.566 74.3081C269.873 74.2735 270.164 74.3236 270.437 74.4582C270.714 74.5936 270.962 74.8453 271.181 75.2133C271.372 75.5324 271.475 75.8502 271.49 76.1665C271.507 76.4816 271.424 76.7835 271.24 77.0721C271.06 77.3616 270.769 77.6265 270.366 77.8667L267.39 79.6429L266.961 78.9233L269.888 77.1762C270.26 76.9541 270.49 76.6859 270.578 76.3714C270.669 76.0578 270.614 75.7312 270.411 75.3917C270.27 75.1559 270.094 74.9742 269.883 74.8467C269.673 74.7211 269.44 74.6615 269.185 74.6678C268.931 74.6761 268.668 74.7616 268.395 74.9242Z" fill="black"/>
<path d="M272.097 88.3023C271.883 87.8588 271.801 87.4188 271.85 86.9821C271.901 86.5477 272.071 86.1451 272.36 85.7743C272.65 85.4057 273.049 85.099 273.556 84.8542C274.068 84.6073 274.559 84.4845 275.03 84.4859C275.503 84.4894 275.925 84.6065 276.296 84.8373C276.669 85.0702 276.962 85.4084 277.176 85.852C277.39 86.2955 277.472 86.7344 277.421 87.1689C277.371 87.6055 277.201 88.0086 276.908 88.3783C276.617 88.7501 276.216 89.0594 275.704 89.3063C275.197 89.5511 274.708 89.6713 274.238 89.6667C273.769 89.6643 273.348 89.5467 272.975 89.3138C272.604 89.083 272.311 88.7458 272.097 88.3023ZM272.775 87.9752C272.938 88.3121 273.158 88.5476 273.435 88.6818C273.713 88.8159 274.018 88.8674 274.35 88.8361C274.681 88.8048 275.012 88.7099 275.34 88.5515C275.668 88.393 275.949 88.1932 276.182 87.9519C276.415 87.7106 276.567 87.439 276.637 87.1372C276.707 86.8353 276.66 86.516 276.498 86.1791C276.335 85.8422 276.114 85.6072 275.834 85.474C275.555 85.3409 275.248 85.2905 274.914 85.3228C274.58 85.3552 274.249 85.4505 273.92 85.609C273.592 85.7674 273.312 85.9667 273.081 86.207C272.85 86.4473 272.701 86.7178 272.633 87.0186C272.565 87.3194 272.612 87.6383 272.775 87.9752Z" fill="black"/>
<path d="M274.533 97.9775L281.554 95.3402L281.839 96.0982L281.027 96.4029L281.062 96.4959C281.173 96.5203 281.316 96.5576 281.491 96.6079C281.67 96.6596 281.85 96.7615 282.031 96.9135C282.215 97.0669 282.37 97.3099 282.494 97.6423C282.656 98.0722 282.691 98.4916 282.599 98.9003C282.507 99.3091 282.299 99.6795 281.973 100.012C281.648 100.344 281.217 100.611 280.681 100.812C280.14 101.015 279.637 101.099 279.171 101.064C278.707 101.029 278.306 100.889 277.966 100.644C277.629 100.399 277.38 100.064 277.22 99.6386C277.097 99.3106 277.053 99.0275 277.087 98.7895C277.124 98.5506 277.192 98.3518 277.292 98.193C277.394 98.0333 277.48 97.9072 277.552 97.8146L277.527 97.7481L274.828 98.7621L274.533 97.9775ZM279.29 97.0705C278.905 97.2153 278.586 97.3996 278.334 97.6234C278.084 97.8463 277.916 98.0976 277.832 98.3772C277.749 98.656 277.767 98.9527 277.885 99.2674C278.008 99.5954 278.198 99.8367 278.453 99.9912C278.711 100.147 279.009 100.225 279.345 100.225C279.684 100.227 280.036 100.159 280.399 100.023C280.758 99.8876 281.061 99.7107 281.308 99.4917C281.557 99.274 281.725 99.0227 281.81 98.7379C281.898 98.4543 281.88 98.1464 281.755 97.8139C281.635 97.4948 281.453 97.257 281.21 97.1006C280.969 96.9434 280.683 96.8634 280.354 96.8608C280.026 96.8574 279.672 96.9273 279.29 97.0705Z" fill="black"/>
<path d="M282.432 114.813L289.521 113.19L290.494 117.441L289.733 117.615L288.956 114.223L286.561 114.771L287.265 117.845L286.503 118.02L285.799 114.946L282.628 115.672L282.432 114.813Z" fill="black"/>
<path d="M284.887 126.25L290.27 125.37L290.405 126.197L285.022 127.077L284.887 126.25ZM291.236 125.644C291.209 125.483 291.241 125.335 291.332 125.2C291.423 125.067 291.546 124.989 291.7 124.963C291.854 124.938 291.996 124.974 292.124 125.07C292.253 125.169 292.331 125.299 292.357 125.461C292.383 125.622 292.351 125.769 292.26 125.901C292.169 126.036 292.047 126.116 291.893 126.141C291.738 126.166 291.597 126.129 291.468 126.03C291.339 125.934 291.262 125.805 291.236 125.644Z" fill="black"/>
<path d="M283.87 133.95C283.83 133.547 283.848 133.195 283.923 132.895C283.996 132.595 284.107 132.341 284.255 132.131C284.401 131.924 284.563 131.755 284.741 131.623L285.272 132.242C285.181 132.327 285.077 132.434 284.961 132.561C284.843 132.69 284.746 132.858 284.672 133.068C284.595 133.28 284.573 133.55 284.605 133.877C284.648 134.316 284.79 134.667 285.03 134.931C285.27 135.195 285.616 135.305 286.068 135.261L287.171 135.153L287.164 135.082C287.059 135.031 286.928 134.955 286.771 134.857C286.616 134.76 286.472 134.612 286.338 134.414C286.207 134.217 286.124 133.942 286.09 133.589C286.047 133.151 286.112 132.747 286.285 132.378C286.458 132.011 286.733 131.707 287.109 131.466C287.485 131.227 287.956 131.079 288.521 131.024C289.077 130.969 289.571 131.02 290.002 131.175C290.436 131.329 290.783 131.57 291.044 131.897C291.307 132.223 291.46 132.615 291.505 133.072C291.54 133.425 291.509 133.711 291.411 133.93C291.316 134.151 291.2 134.324 291.063 134.45C290.928 134.577 290.816 134.676 290.728 134.747L290.736 134.831L291.598 134.747L291.677 135.553L286.093 136.101C285.627 136.146 285.237 136.078 284.924 135.894C284.609 135.713 284.366 135.452 284.194 135.109C284.021 134.77 283.912 134.383 283.87 133.95ZM286.85 133.628C286.883 133.963 286.987 134.238 287.163 134.454C287.339 134.67 287.576 134.824 287.875 134.916C288.175 135.008 288.525 135.034 288.925 134.995C289.316 134.956 289.656 134.864 289.943 134.716C290.231 134.569 290.448 134.372 290.595 134.124C290.742 133.877 290.799 133.583 290.766 133.244C290.731 132.891 290.613 132.605 290.41 132.387C290.209 132.171 289.951 132.019 289.638 131.931C289.325 131.845 288.985 131.82 288.617 131.856C288.24 131.893 287.913 131.985 287.634 132.131C287.359 132.28 287.15 132.479 287.008 132.728C286.868 132.98 286.816 133.28 286.85 133.628Z" fill="black"/>
<path d="M287.047 144.19L292.501 144.251L292.492 145.061L291.64 145.051L291.639 145.122C291.929 145.239 292.153 145.425 292.311 145.68C292.472 145.935 292.55 146.24 292.546 146.595C292.542 146.955 292.457 147.254 292.291 147.491C292.127 147.731 291.899 147.916 291.607 148.048L291.606 148.105C291.886 148.248 292.107 148.46 292.27 148.741C292.435 149.022 292.515 149.358 292.511 149.749C292.505 150.236 292.348 150.633 292.039 150.94C291.733 151.247 291.259 151.397 290.617 151.389L286.967 151.348L286.976 150.51L290.627 150.551C291.029 150.556 291.318 150.449 291.493 150.231C291.669 150.013 291.758 149.754 291.761 149.456C291.766 149.073 291.653 148.774 291.423 148.561C291.196 148.348 290.906 148.239 290.553 148.235L287.002 148.195L287.012 147.343L290.747 147.385C291.058 147.388 291.308 147.291 291.5 147.091C291.694 146.892 291.793 146.634 291.796 146.317C291.799 146.099 291.743 145.895 291.629 145.704C291.515 145.516 291.356 145.363 291.151 145.244C290.949 145.128 290.714 145.069 290.447 145.066L287.038 145.028L287.047 144.19Z" fill="black"/>
<path d="M286.269 163.228C286.309 162.884 286.41 162.58 286.573 162.316C286.737 162.051 286.952 161.851 287.218 161.716C287.487 161.58 287.798 161.533 288.15 161.575C288.461 161.611 288.705 161.701 288.884 161.846C289.064 161.991 289.198 162.173 289.285 162.39C289.371 162.608 289.427 162.843 289.452 163.096C289.48 163.352 289.495 163.608 289.498 163.863C289.502 164.197 289.503 164.468 289.5 164.675C289.499 164.885 289.52 165.04 289.563 165.14C289.606 165.243 289.695 165.302 289.829 165.318L289.857 165.321C290.205 165.362 290.486 165.298 290.701 165.13C290.916 164.965 291.046 164.69 291.091 164.307C291.138 163.91 291.087 163.588 290.939 163.342C290.792 163.096 290.625 162.915 290.438 162.801L290.813 162.044C291.125 162.223 291.36 162.441 291.515 162.698C291.673 162.957 291.772 163.231 291.813 163.519C291.855 163.81 291.86 164.092 291.828 164.365C291.808 164.539 291.763 164.736 291.694 164.957C291.628 165.18 291.518 165.391 291.367 165.587C291.215 165.786 291.002 165.942 290.729 166.053C290.457 166.164 290.105 166.194 289.675 166.144L286.105 165.726L286.203 164.893L286.936 164.979L286.941 164.937C286.83 164.867 286.716 164.758 286.597 164.61C286.478 164.463 286.385 164.275 286.316 164.045C286.248 163.815 286.232 163.543 286.269 163.228ZM287.002 163.442C286.963 163.771 286.996 164.056 287.098 164.297C287.201 164.541 287.348 164.732 287.539 164.871C287.73 165.012 287.938 165.096 288.164 165.123L288.926 165.212C288.887 165.172 288.858 165.09 288.837 164.966C288.817 164.844 288.804 164.704 288.796 164.546C288.791 164.391 288.787 164.239 288.785 164.091C288.786 163.945 288.785 163.827 288.784 163.737C288.781 163.517 288.759 163.31 288.717 163.114C288.678 162.921 288.603 162.76 288.491 162.63C288.382 162.503 288.222 162.427 288.01 162.402C287.721 162.368 287.49 162.449 287.317 162.646C287.146 162.845 287.041 163.111 287.002 163.442Z" fill="black"/>
<path d="M284.08 179.053L291.114 180.901L290.89 181.753L287.758 180.93L286.773 184.68L289.905 185.504L289.681 186.355L282.647 184.507L282.871 183.655L286.017 184.482L287.002 180.731L283.856 179.905L284.08 179.053Z" fill="black"/>
<path d="M286.35 195.327L287.081 195.602L285.161 200.707L284.429 200.432L285.235 198.291L279.159 196.005L279.469 195.181L285.545 197.467L286.35 195.327Z" fill="black"/>
<path d="M281.964 209.062L281.484 209.997L274.984 209.441L274.945 209.516L279.189 214.471L278.709 215.406L272.238 212.087L272.614 211.354L277.53 213.876L277.563 213.813L273.684 209.268L274.047 208.561L280.001 209.061L280.033 208.997L275.117 206.475L275.493 205.742L281.964 209.062Z" fill="black"/>
<path d="M267.071 221.509L273.148 225.505L272.664 226.241L267.24 222.674L265.382 225.498L264.73 225.069L267.071 221.509Z" fill="black"/>
<path d="M256.909 243.633L257.49 242.971C257.715 243.099 257.942 243.178 258.172 243.206C258.401 243.237 258.625 243.226 258.844 243.173C259.064 243.124 259.273 243.037 259.469 242.914C259.666 242.79 259.844 242.638 260.003 242.456C260.294 242.126 260.474 241.752 260.542 241.337C260.61 240.923 260.55 240.494 260.364 240.05C260.176 239.608 259.845 239.179 259.372 238.763C258.899 238.347 258.431 238.075 257.968 237.945C257.503 237.818 257.07 237.814 256.669 237.934C256.266 238.056 255.919 238.282 255.628 238.613C255.469 238.794 255.34 238.99 255.243 239.201C255.146 239.412 255.087 239.629 255.064 239.852C255.042 240.078 255.06 240.302 255.12 240.525C255.18 240.751 255.287 240.966 255.441 241.171L254.86 241.833C254.624 241.538 254.454 241.227 254.349 240.902C254.244 240.577 254.201 240.248 254.218 239.917C254.237 239.587 254.313 239.265 254.447 238.951C254.58 238.638 254.767 238.345 255.009 238.069C255.419 237.603 255.896 237.288 256.443 237.126C256.989 236.963 257.564 236.962 258.166 237.122C258.769 237.283 259.358 237.617 259.934 238.123C260.511 238.629 260.917 239.171 261.154 239.747C261.391 240.324 261.464 240.894 261.373 241.457C261.282 242.02 261.032 242.534 260.622 243C260.38 243.276 260.113 243.499 259.82 243.671C259.526 243.844 259.216 243.961 258.889 244.021C258.564 244.082 258.234 244.081 257.898 244.019C257.563 243.959 257.234 243.83 256.909 243.633Z" fill="black"/>
<path d="M248.041 253.531C248.317 253.766 248.634 253.853 248.991 253.792C249.349 253.731 249.688 253.55 250.011 253.25C250.246 253.031 250.417 252.801 250.523 252.56C250.627 252.321 250.666 252.088 250.641 251.863C250.613 251.639 250.521 251.442 250.363 251.273C250.23 251.131 250.083 251.04 249.92 251.001C249.757 250.965 249.591 250.963 249.42 250.995C249.252 251.029 249.088 251.08 248.93 251.146C248.773 251.214 248.634 251.281 248.511 251.347L247.835 251.705C247.662 251.798 247.461 251.891 247.232 251.985C247 252.081 246.755 252.145 246.496 252.18C246.237 252.217 245.976 252.198 245.714 252.122C245.452 252.045 245.205 251.882 244.973 251.633C244.705 251.345 244.538 251.015 244.473 250.643C244.406 250.272 244.452 249.884 244.613 249.479C244.771 249.076 245.055 248.684 245.464 248.304C245.845 247.949 246.232 247.703 246.626 247.566C247.017 247.431 247.395 247.399 247.76 247.471C248.122 247.544 248.449 247.717 248.741 247.988L248.076 248.608C247.871 248.423 247.649 248.32 247.409 248.298C247.168 248.279 246.927 248.322 246.685 248.428C246.444 248.536 246.217 248.689 246.006 248.886C245.76 249.115 245.576 249.36 245.454 249.622C245.334 249.886 245.284 250.143 245.304 250.393C245.325 250.645 245.426 250.868 245.606 251.063C245.771 251.239 245.954 251.337 246.156 251.356C246.358 251.375 246.572 251.344 246.798 251.263C247.023 251.183 247.254 251.081 247.489 250.959L248.319 250.536C248.846 250.269 249.334 250.133 249.783 250.129C250.232 250.125 250.624 250.302 250.957 250.661C251.235 250.959 251.396 251.294 251.442 251.665C251.487 252.041 251.43 252.417 251.271 252.795C251.111 253.176 250.862 253.525 250.522 253.841C250.179 254.161 249.817 254.383 249.435 254.508C249.056 254.636 248.689 254.666 248.337 254.6C247.982 254.535 247.676 254.373 247.417 254.112L248.041 253.531Z" fill="black"/>
<path d="M237.844 262.332C238.098 262.592 238.405 262.708 238.766 262.681C239.128 262.654 239.483 262.506 239.832 262.238C240.087 262.041 240.279 261.828 240.407 261.599C240.533 261.37 240.594 261.143 240.59 260.916C240.584 260.691 240.51 260.486 240.369 260.302C240.25 260.148 240.112 260.044 239.954 259.99C239.795 259.938 239.629 259.921 239.456 259.937C239.285 259.955 239.118 259.99 238.954 260.041C238.792 260.094 238.646 260.148 238.518 260.202L237.811 260.495C237.631 260.571 237.422 260.645 237.184 260.717C236.945 260.79 236.695 260.832 236.434 260.842C236.172 260.855 235.914 260.811 235.661 260.71C235.407 260.609 235.176 260.424 234.969 260.154C234.729 259.842 234.594 259.498 234.564 259.121C234.532 258.745 234.615 258.364 234.812 257.976C235.008 257.589 235.327 257.226 235.77 256.885C236.183 256.568 236.592 256.36 236.997 256.261C237.399 256.163 237.779 256.167 238.135 256.272C238.489 256.379 238.798 256.582 239.063 256.88L238.342 257.434C238.156 257.231 237.945 257.107 237.707 257.062C237.47 257.021 237.225 257.042 236.975 257.124C236.724 257.209 236.484 257.34 236.255 257.516C235.989 257.721 235.783 257.948 235.637 258.197C235.493 258.449 235.419 258.7 235.414 258.951C235.412 259.204 235.491 259.435 235.653 259.646C235.8 259.837 235.973 259.952 236.173 259.989C236.372 260.027 236.588 260.017 236.82 259.958C237.052 259.898 237.291 259.819 237.537 259.72L238.403 259.377C238.953 259.16 239.451 259.071 239.899 259.109C240.346 259.147 240.719 259.36 241.018 259.749C241.266 260.072 241.396 260.42 241.406 260.795C241.415 261.172 241.323 261.542 241.129 261.903C240.935 262.268 240.654 262.591 240.286 262.874C239.914 263.16 239.533 263.347 239.141 263.436C238.751 263.527 238.384 263.523 238.039 263.424C237.692 263.326 237.402 263.136 237.169 262.852L237.844 262.332Z" fill="black"/>
<path d="M223.523 274.341L222.76 274.78L220.167 270.274C219.936 269.872 219.813 269.488 219.799 269.121C219.785 268.755 219.87 268.422 220.055 268.122C220.24 267.821 220.515 267.566 220.881 267.356C221.225 267.157 221.568 267.044 221.909 267.014C222.251 266.987 222.566 267.046 222.855 267.191C223.143 267.336 223.38 267.57 223.565 267.892L222.814 268.324C222.712 268.146 222.578 268.015 222.413 267.933C222.247 267.853 222.065 267.822 221.866 267.837C221.668 267.853 221.469 267.918 221.27 268.033C221.051 268.159 220.89 268.313 220.79 268.494C220.689 268.675 220.65 268.877 220.673 269.102C220.694 269.33 220.78 269.574 220.93 269.835L223.523 274.341Z" fill="black"/>
<path d="M210.787 272.87C211.1 272.723 211.412 272.649 211.722 272.647C212.034 272.647 212.317 272.725 212.573 272.879C212.829 273.036 213.033 273.275 213.184 273.597C213.317 273.88 213.368 274.135 213.339 274.363C213.311 274.593 213.228 274.802 213.089 274.991C212.949 275.179 212.779 275.35 212.577 275.505C212.374 275.663 212.165 275.811 211.95 275.949C211.668 276.128 211.438 276.271 211.261 276.378C211.082 276.488 210.961 276.588 210.899 276.677C210.834 276.768 210.83 276.874 210.888 276.996L210.9 277.022C211.049 277.339 211.251 277.545 211.507 277.639C211.761 277.734 212.063 277.7 212.412 277.536C212.774 277.366 213.021 277.154 213.152 276.899C213.284 276.643 213.349 276.406 213.348 276.187L214.189 276.106C214.201 276.467 214.139 276.781 214.003 277.049C213.866 277.319 213.686 277.548 213.462 277.734C213.237 277.923 213 278.076 212.751 278.193C212.593 278.267 212.402 278.333 212.178 278.391C211.953 278.453 211.717 278.47 211.469 278.445C211.22 278.421 210.976 278.322 210.738 278.149C210.5 277.976 210.289 277.693 210.105 277.301L208.578 274.047L209.337 273.691L209.651 274.36L209.689 274.342C209.691 274.211 209.722 274.056 209.785 273.877C209.848 273.699 209.959 273.52 210.118 273.341C210.277 273.161 210.5 273.004 210.787 272.87ZM210.991 273.605C210.691 273.746 210.466 273.924 210.316 274.138C210.163 274.354 210.078 274.579 210.06 274.815C210.041 275.052 210.079 275.273 210.176 275.479L210.502 276.173C210.516 276.12 210.57 276.051 210.664 275.968C210.757 275.887 210.869 275.802 210.999 275.712C211.128 275.625 211.255 275.542 211.38 275.463C211.504 275.386 211.604 275.324 211.68 275.275C211.866 275.157 212.03 275.028 212.175 274.89C212.318 274.755 212.415 274.606 212.467 274.443C212.517 274.283 212.498 274.107 212.407 273.914C212.283 273.65 212.092 273.497 211.834 273.453C211.574 273.413 211.294 273.464 210.991 273.605Z" fill="black"/>
<path d="M199.894 283.634L199.883 277.818L200.681 277.521L204.474 281.93L203.622 282.247L200.695 278.698L200.642 278.718L200.746 283.317L199.894 283.634Z" fill="black"/>
<path d="M189.948 281.149C190.28 281.056 190.6 281.034 190.906 281.084C191.213 281.135 191.48 281.259 191.707 281.454C191.934 281.651 192.095 281.92 192.191 282.262C192.275 282.563 192.284 282.824 192.218 283.044C192.152 283.266 192.035 283.459 191.866 283.621C191.698 283.784 191.501 283.925 191.277 284.044C191.05 284.166 190.82 284.278 190.585 284.378C190.277 284.508 190.027 284.611 189.834 284.687C189.64 284.766 189.504 284.844 189.428 284.922C189.349 285.001 189.328 285.105 189.364 285.235L189.372 285.262C189.466 285.6 189.632 285.836 189.869 285.972C190.103 286.108 190.406 286.124 190.778 286.02C191.163 285.912 191.442 285.743 191.614 285.513C191.785 285.284 191.889 285.06 191.924 284.844L192.767 284.903C192.719 285.261 192.606 285.56 192.428 285.802C192.248 286.047 192.032 286.242 191.781 286.389C191.528 286.538 191.269 286.65 191.004 286.724C190.835 286.771 190.636 286.804 190.406 286.824C190.174 286.848 189.938 286.826 189.698 286.76C189.456 286.695 189.232 286.558 189.026 286.347C188.82 286.137 188.658 285.823 188.542 285.406L187.574 281.945L188.381 281.719L188.58 282.431L188.621 282.419C188.644 282.29 188.701 282.142 188.793 281.977C188.884 281.811 189.023 281.653 189.209 281.503C189.396 281.352 189.642 281.234 189.948 281.149ZM190.027 281.908C189.708 281.997 189.456 282.135 189.272 282.322C189.086 282.509 188.965 282.718 188.909 282.947C188.85 283.177 188.852 283.402 188.913 283.621L189.119 284.36C189.142 284.309 189.207 284.25 189.313 284.184C189.419 284.12 189.543 284.054 189.686 283.987C189.828 283.923 189.967 283.862 190.103 283.804C190.238 283.749 190.347 283.704 190.431 283.669C190.633 283.583 190.816 283.483 190.982 283.371C191.145 283.261 191.266 283.13 191.344 282.978C191.42 282.829 191.43 282.652 191.372 282.447C191.294 282.166 191.131 281.983 190.883 281.898C190.634 281.815 190.349 281.818 190.027 281.908Z" fill="black"/>
<path d="M177.403 289.984C177.51 290.33 177.731 290.573 178.065 290.714C178.399 290.854 178.783 290.885 179.216 290.805C179.532 290.746 179.8 290.644 180.018 290.498C180.235 290.352 180.392 290.177 180.492 289.973C180.589 289.77 180.617 289.554 180.575 289.326C180.539 289.135 180.464 288.979 180.348 288.859C180.23 288.741 180.09 288.65 179.929 288.586C179.768 288.524 179.603 288.479 179.434 288.45C179.266 288.423 179.112 288.404 178.973 288.394L178.21 288.333C178.015 288.318 177.795 288.289 177.551 288.245C177.305 288.201 177.063 288.124 176.826 288.014C176.587 287.907 176.378 287.75 176.198 287.545C176.018 287.34 175.897 287.07 175.835 286.735C175.764 286.348 175.8 285.98 175.945 285.631C176.088 285.282 176.335 284.98 176.688 284.725C177.038 284.47 177.488 284.291 178.037 284.19C178.549 284.095 179.008 284.096 179.413 284.192C179.816 284.289 180.152 284.465 180.421 284.721C180.688 284.978 180.871 285.299 180.971 285.685L180.077 285.85C180.004 285.584 179.872 285.377 179.681 285.23C179.488 285.085 179.261 284.992 179.001 284.951C178.739 284.913 178.466 284.92 178.182 284.972C177.851 285.033 177.564 285.142 177.321 285.297C177.078 285.455 176.898 285.645 176.78 285.867C176.662 286.091 176.627 286.333 176.676 286.594C176.719 286.831 176.821 287.012 176.982 287.137C177.142 287.261 177.339 287.35 177.573 287.403C177.806 287.456 178.055 287.495 178.32 287.518L179.246 287.607C179.834 287.664 180.319 287.812 180.7 288.05C181.081 288.287 181.316 288.647 181.405 289.129C181.479 289.53 181.435 289.899 181.274 290.237C181.11 290.578 180.86 290.865 180.523 291.098C180.184 291.334 179.786 291.494 179.33 291.578C178.869 291.663 178.444 291.656 178.055 291.557C177.666 291.461 177.341 291.289 177.079 291.044C176.814 290.799 176.643 290.497 176.565 290.139L177.403 289.984Z" fill="black"/>
<path d="M165.555 286.19C166.064 286.143 166.514 286.222 166.904 286.428C167.294 286.634 167.608 286.938 167.846 287.342C168.083 287.745 168.228 288.218 168.278 288.76C168.33 289.311 168.274 289.808 168.111 290.249C167.946 290.692 167.692 291.05 167.349 291.322C167.004 291.597 166.586 291.758 166.096 291.804C165.714 291.839 165.363 291.801 165.043 291.688C164.724 291.576 164.454 291.401 164.235 291.165C164.015 290.929 163.866 290.643 163.787 290.308L164.621 290.23C164.708 290.471 164.87 290.677 165.107 290.848C165.342 291.021 165.643 291.09 166.011 291.055C166.336 291.025 166.614 290.913 166.843 290.721C167.07 290.53 167.238 290.276 167.346 289.956C167.451 289.64 167.485 289.276 167.447 288.866C167.407 288.447 167.307 288.088 167.146 287.789C166.982 287.49 166.771 287.266 166.512 287.117C166.251 286.968 165.955 286.909 165.625 286.94C165.408 286.96 165.215 287.016 165.045 287.108C164.876 287.2 164.736 287.323 164.627 287.476C164.518 287.629 164.446 287.807 164.413 288.009L163.579 288.088C163.596 287.763 163.685 287.463 163.847 287.189C164.007 286.917 164.232 286.691 164.522 286.512C164.81 286.335 165.154 286.228 165.555 286.19Z" fill="black"/>
<path d="M156.198 287.047L156.318 292.5L155.508 292.518L155.49 291.694L155.433 291.695C155.34 291.967 155.165 292.19 154.908 292.364C154.651 292.538 154.36 292.628 154.033 292.635C153.971 292.637 153.895 292.637 153.802 292.637C153.71 292.637 153.64 292.634 153.592 292.631L153.574 291.779C153.602 291.785 153.668 291.794 153.77 291.806C153.87 291.821 153.975 291.827 154.086 291.824C154.351 291.819 154.587 291.758 154.793 291.642C154.996 291.529 155.156 291.374 155.273 291.177C155.387 290.983 155.441 290.762 155.436 290.516L155.361 287.065L156.198 287.047Z" fill="black"/>
<path d="M148.085 287.145L147.939 292.597L147.101 292.575L147.247 287.122L148.085 287.145ZM147.489 293.495C147.652 293.499 147.791 293.559 147.906 293.673C148.019 293.787 148.074 293.923 148.07 294.079C148.065 294.235 148.004 294.367 147.885 294.475C147.764 294.583 147.621 294.635 147.458 294.631C147.295 294.626 147.157 294.567 147.044 294.453C146.928 294.338 146.873 294.203 146.877 294.047C146.881 293.891 146.944 293.758 147.065 293.65C147.184 293.542 147.325 293.49 147.489 293.495Z" fill="black"/>
<path d="M142.78 285.008L142.097 292.477L141.291 292.403L141.37 291.54L141.271 291.531C141.201 291.62 141.105 291.732 140.983 291.868C140.859 292.007 140.689 292.124 140.473 292.221C140.255 292.32 139.969 292.353 139.615 292.321C139.158 292.279 138.765 292.128 138.437 291.867C138.109 291.607 137.866 291.258 137.709 290.82C137.552 290.382 137.499 289.878 137.551 289.308C137.604 288.733 137.747 288.243 137.982 287.839C138.216 287.437 138.517 287.137 138.884 286.937C139.252 286.74 139.662 286.662 140.115 286.704C140.463 286.736 140.738 286.819 140.937 286.954C141.136 287.091 141.285 287.239 141.385 287.398C141.484 287.559 141.56 287.692 141.612 287.796L141.683 287.803L141.945 284.931L142.78 285.008ZM141.525 289.686C141.562 289.275 141.535 288.908 141.444 288.583C141.352 288.261 141.199 288.001 140.984 287.803C140.769 287.608 140.494 287.494 140.159 287.464C139.81 287.432 139.511 287.497 139.26 287.66C139.008 287.824 138.808 288.058 138.661 288.361C138.512 288.666 138.42 289.012 138.385 289.398C138.35 289.78 138.377 290.13 138.467 290.447C138.554 290.767 138.708 291.027 138.927 291.227C139.144 291.43 139.429 291.548 139.783 291.58C140.122 291.611 140.415 291.551 140.662 291.4C140.909 291.252 141.105 291.03 141.251 290.734C141.396 290.44 141.488 290.091 141.525 289.686Z" fill="black"/>
<path d="M127.205 290.776L127.319 290.074L130.109 290.528L129.995 291.229L127.205 290.776ZM128.972 292.387L128.145 292.252L128.98 287.121C129.018 286.887 129.012 286.707 128.963 286.579C128.912 286.453 128.836 286.361 128.735 286.304C128.631 286.249 128.518 286.211 128.397 286.192C128.306 286.177 128.23 286.169 128.17 286.169C128.11 286.171 128.062 286.173 128.025 286.174L127.978 285.404C128.038 285.392 128.119 285.384 128.223 285.379C128.327 285.372 128.457 285.381 128.611 285.406C128.845 285.444 129.065 285.532 129.273 285.669C129.479 285.805 129.639 285.988 129.753 286.218C129.864 286.447 129.894 286.718 129.843 287.031L128.972 292.387Z" fill="black"/>
<path d="M116.438 288.617L115.626 288.41L117.074 282.739C117.157 282.414 117.286 282.146 117.459 281.936C117.63 281.726 117.845 281.584 118.103 281.51C118.359 281.436 118.656 281.443 118.996 281.53C119.023 281.537 119.051 281.544 119.078 281.551C119.106 281.558 119.134 281.565 119.161 281.572L118.968 282.329C118.94 282.322 118.915 282.315 118.892 282.309C118.869 282.303 118.844 282.297 118.816 282.29C118.569 282.227 118.369 282.254 118.216 282.371C118.065 282.487 117.955 282.678 117.886 282.947L116.438 288.617ZM115.814 289.396C115.972 289.436 116.095 289.525 116.182 289.662C116.267 289.799 116.29 289.943 116.251 290.094C116.213 290.245 116.123 290.361 115.983 290.44C115.841 290.518 115.691 290.537 115.533 290.497C115.374 290.456 115.253 290.368 115.168 290.231C115.081 290.094 115.057 289.95 115.095 289.799C115.134 289.647 115.224 289.532 115.367 289.454C115.507 289.375 115.656 289.355 115.814 289.396Z" fill="black"/>
<path d="M109.086 283.344L108.171 283.035L107.745 281.766L107.634 281.429L107.005 279.521L107.92 279.831L108.332 281.095L108.434 281.414L109.086 283.344ZM105.339 283.517C105.585 282.79 105.928 282.206 106.37 281.766C106.811 281.325 107.309 281.039 107.864 280.906C108.418 280.774 108.989 280.807 109.577 281.006C110.164 281.204 110.638 281.525 110.999 281.966C111.359 282.408 111.581 282.938 111.665 283.556C111.748 284.174 111.667 284.846 111.421 285.573C111.176 286.3 110.832 286.883 110.391 287.324C109.949 287.764 109.451 288.051 108.897 288.183C108.342 288.316 107.771 288.282 107.184 288.084C106.596 287.885 106.122 287.565 105.762 287.123C105.401 286.681 105.179 286.151 105.096 285.533C105.012 284.915 105.093 284.243 105.339 283.517ZM106.146 283.789C105.945 284.386 105.874 284.923 105.935 285.401C105.994 285.878 106.157 286.28 106.424 286.605C106.689 286.929 107.03 287.162 107.448 287.303C107.865 287.444 108.278 287.467 108.688 287.37C109.096 287.273 109.469 287.053 109.807 286.71C110.143 286.367 110.412 285.897 110.614 285.3C110.816 284.703 110.887 284.167 110.829 283.689C110.768 283.212 110.605 282.81 110.34 282.486C110.072 282.16 109.73 281.927 109.313 281.786C108.896 281.645 108.483 281.623 108.076 281.72C107.666 281.817 107.293 282.037 106.957 282.38C106.618 282.723 106.348 283.193 106.146 283.789Z" fill="black"/>
<path d="M94.0017 277.63L92.6684 280.566L91.9053 280.219L94.1608 275.253L94.9238 275.599L94.5421 276.44L94.5938 276.463C94.8247 276.264 95.1032 276.132 95.4292 276.067C95.7542 276.004 96.1043 276.057 96.4793 276.228C96.7897 276.369 97.0348 276.562 97.2146 276.807C97.3933 277.055 97.489 277.348 97.5017 277.687C97.5134 278.027 97.4233 278.409 97.2314 278.831L95.7982 281.987L95.0352 281.641L96.4448 278.537C96.6093 278.174 96.6392 277.84 96.5344 277.532C96.4275 277.223 96.2157 276.997 95.8988 276.853C95.7091 276.767 95.4942 276.728 95.254 276.736C95.0116 276.743 94.7781 276.816 94.5534 276.956C94.3266 277.095 94.1426 277.319 94.0017 277.63Z" fill="black"/>
<path d="M85.1976 270.735C85.6553 270.993 85.9931 271.317 86.211 271.707C86.4256 272.097 86.5197 272.525 86.4931 272.991C86.4632 273.458 86.311 273.935 86.0364 274.422C85.7618 274.908 85.4311 275.287 85.0443 275.558C84.6543 275.83 84.2408 275.98 83.8037 276.008C83.3634 276.036 82.9288 275.93 82.5 275.688C82.2526 275.548 82.0315 275.369 81.8368 275.15C81.6422 274.932 81.4982 274.674 81.405 274.377C81.3107 274.081 81.2903 273.749 81.3438 273.38C81.3974 273.01 81.5492 272.604 81.7994 272.161L81.974 271.851L85.6355 273.918L85.2795 274.549L82.3601 272.901C82.2088 273.169 82.1274 273.439 82.116 273.709C82.1024 273.979 82.1592 274.23 82.2864 274.462C82.4116 274.693 82.6061 274.883 82.87 275.032C83.1607 275.196 83.453 275.266 83.7468 275.242C84.0374 275.218 84.3039 275.124 84.5465 274.959C84.789 274.794 84.9842 274.581 85.132 274.319L85.3694 273.898C85.5719 273.54 85.6817 273.201 85.6988 272.881C85.7126 272.563 85.6449 272.276 85.4955 272.02C85.345 271.767 85.1224 271.557 84.8275 271.391C84.6358 271.282 84.4475 271.211 84.2626 271.178C84.0745 271.145 83.8929 271.151 83.7178 271.196C83.5416 271.244 83.376 271.332 83.2211 271.462L82.6277 270.867C82.8369 270.669 83.0803 270.529 83.358 270.447C83.6344 270.366 83.93 270.348 84.2448 270.393C84.5583 270.439 84.8759 270.553 85.1976 270.735Z" fill="black"/>
<path d="M76.9848 266.076L73.9652 270.618L73.2909 270.17L73.747 269.484L73.6997 269.453C73.4674 269.622 73.1964 269.705 72.8865 269.701C72.5765 269.697 72.2855 269.604 72.0135 269.423C71.9622 269.389 71.8988 269.346 71.8232 269.293C71.7476 269.239 71.6914 269.198 71.6546 269.168L72.1264 268.458C72.1462 268.48 72.1945 268.524 72.2714 268.593C72.345 268.662 72.4282 268.727 72.5208 268.788C72.7416 268.935 72.9696 269.02 73.2047 269.043C73.4365 269.066 73.6564 269.03 73.8644 268.935C74.0692 268.841 74.2397 268.692 74.376 268.486L76.2869 265.612L76.9848 266.076Z" fill="black"/>
<path d="M70.9481 259.55C71.0605 259.637 71.1534 259.724 71.227 259.811C71.302 259.896 71.3498 259.96 71.3705 260.003L70.7501 260.457C70.6209 260.291 70.4902 260.166 70.3579 260.081C70.2256 259.997 70.0733 259.968 69.901 259.993C69.7283 260.015 69.517 260.105 69.267 260.262L68.8828 260.503L67.1247 266.074L66.4055 265.518L67.873 261.159L67.8281 261.124L63.9783 263.642L63.2591 263.086L68.9137 259.557C69.1684 259.398 69.4131 259.293 69.6478 259.241C69.884 259.187 70.1101 259.187 70.3262 259.24C70.5404 259.292 70.7477 259.395 70.9481 259.55Z" fill="black"/>
<path d="M56.5166 250.341L51.3521 255.462L49.6219 253.717C49.2218 253.313 48.9624 252.914 48.8436 252.518C48.723 252.124 48.7205 251.747 48.8358 251.385C48.9512 251.024 49.161 250.693 49.4653 250.391C49.7696 250.09 50.1011 249.884 50.4598 249.775C50.8185 249.666 51.1927 249.674 51.5822 249.798C51.97 249.923 52.3623 250.186 52.759 250.586L54.1592 251.998L53.5943 252.558L52.2141 251.166C51.9408 250.891 51.6804 250.709 51.433 250.621C51.184 250.531 50.948 250.521 50.725 250.592C50.4987 250.664 50.2822 250.802 50.0754 251.007C49.8686 251.212 49.7262 251.429 49.6482 251.66C49.5703 251.891 49.5734 252.133 49.6577 252.386C49.7403 252.641 49.92 252.908 50.1967 253.187L51.2868 254.286L55.8965 249.716L56.5166 250.341ZM51.7863 250.21L52.8462 246.639L53.5663 247.365L52.4864 250.916L51.7863 250.21Z" fill="black"/>
<path d="M46.3481 239.481C46.6831 239.886 46.8827 240.309 46.9469 240.751C47.0078 241.192 46.9425 241.626 46.751 242.051C46.5561 242.477 46.2434 242.868 45.8129 243.224C45.3825 243.58 44.9382 243.816 44.4801 243.93C44.0186 244.045 43.5788 244.037 43.1607 243.907C42.7392 243.776 42.3715 243.521 42.0576 243.142C41.8765 242.923 41.7341 242.676 41.6305 242.403C41.5269 242.129 41.4847 241.837 41.504 241.526C41.5214 241.216 41.6212 240.899 41.8033 240.573C41.9854 240.247 42.2726 239.922 42.6647 239.597L42.9383 239.371L45.6187 242.61L45.0605 243.072L42.9235 240.489C42.6864 240.686 42.514 240.908 42.4065 241.157C42.2974 241.404 42.2607 241.658 42.2965 241.921C42.3307 242.181 42.4444 242.428 42.6376 242.662C42.8504 242.919 43.0984 243.089 43.3815 243.171C43.6613 243.253 43.9439 243.26 44.2294 243.193C44.5149 243.126 44.7734 242.996 45.0051 242.805L45.3772 242.497C45.6945 242.234 45.9183 241.957 46.0485 241.665C46.1753 241.372 46.2147 241.08 46.1666 240.788C46.1167 240.498 45.9838 240.222 45.768 239.961C45.6277 239.791 45.4772 239.658 45.3166 239.56C45.1526 239.462 44.9808 239.403 44.8011 239.383C44.6196 239.364 44.4333 239.388 44.2421 239.454L43.901 238.685C44.167 238.576 44.4443 238.532 44.7331 238.554C45.0201 238.578 45.3026 238.667 45.5806 238.821C45.8568 238.977 46.1126 239.197 46.3481 239.481Z" fill="black"/>
<path d="M39.3127 230.586C39.5095 230.87 39.6346 231.165 39.688 231.471C39.7394 231.778 39.7101 232.071 39.6001 232.348C39.4882 232.627 39.2863 232.868 38.9944 233.07C38.7375 233.248 38.4942 233.342 38.2645 233.351C38.0329 233.362 37.8127 233.314 37.6039 233.208C37.3952 233.102 37.1977 232.963 37.0114 232.789C36.8218 232.615 36.6412 232.434 36.4697 232.244C36.246 231.996 36.0667 231.794 35.9319 231.636C35.7938 231.479 35.6754 231.376 35.5768 231.329C35.4767 231.281 35.3712 231.295 35.2603 231.371L35.237 231.388C34.9489 231.587 34.7797 231.821 34.7293 232.089C34.6776 232.355 34.7616 232.647 34.9813 232.964C35.2091 233.293 35.4597 233.501 35.7332 233.588C36.0066 233.675 36.2513 233.7 36.4674 233.663L36.6868 234.479C36.3334 234.551 36.0135 234.542 35.7269 234.452C35.437 234.362 35.1816 234.222 34.9609 234.033C34.7369 233.842 34.5466 233.634 34.3903 233.408C34.2905 233.264 34.1935 233.087 34.0991 232.876C34.0014 232.664 33.9444 232.434 33.9282 232.186C33.9106 231.936 33.9675 231.679 34.0987 231.416C34.23 231.152 34.4737 230.897 34.8298 230.65L37.7841 228.604L38.2613 229.293L37.6541 229.713L37.6783 229.748C37.808 229.728 37.966 229.733 38.1525 229.766C38.3389 229.798 38.5337 229.877 38.7369 230.004C38.9401 230.131 39.1321 230.325 39.3127 230.586ZM38.621 230.91C38.4323 230.637 38.2197 230.445 37.9833 230.332C37.7455 230.217 37.5089 230.171 37.2735 230.193C37.0368 230.213 36.825 230.288 36.6382 230.417L36.0076 230.854C36.0629 230.859 36.1395 230.901 36.2374 230.98C36.3321 231.058 36.4346 231.154 36.545 231.268C36.652 231.381 36.7552 231.492 36.8543 231.602C36.9502 231.711 37.0286 231.8 37.0895 231.867C37.2369 232.03 37.3908 232.171 37.5512 232.29C37.7083 232.409 37.8714 232.48 38.0406 232.504C38.2065 232.527 38.377 232.478 38.5522 232.357C38.7916 232.191 38.9112 231.977 38.9112 231.715C38.9078 231.453 38.8111 231.184 38.621 230.91Z" fill="black"/>
<path d="M32.6862 220.58C32.9412 221.023 33.056 221.465 33.0308 221.905C33.0056 222.346 32.8589 222.758 32.5907 223.142C32.3225 223.525 31.9524 223.853 31.4804 224.124C31.0002 224.401 30.5256 224.556 30.0568 224.591C29.5847 224.625 29.1535 224.542 28.7633 224.343C28.3699 224.144 28.0504 223.83 27.8049 223.403C27.6137 223.071 27.5029 222.736 27.4726 222.398C27.4423 222.061 27.489 221.743 27.6127 221.445C27.7364 221.147 27.9342 220.893 28.2061 220.682L28.6239 221.409C28.4403 221.588 28.3203 221.821 28.2638 222.107C28.2041 222.393 28.2663 222.696 28.4504 223.016C28.6133 223.299 28.83 223.505 29.1005 223.633C29.3678 223.761 29.6691 223.807 30.0043 223.773C30.3363 223.738 30.6809 223.617 31.0379 223.412C31.4032 223.202 31.6883 222.962 31.8931 222.691C32.0967 222.418 32.2126 222.133 32.2409 221.835C32.2679 221.536 32.1989 221.242 32.0336 220.955C31.925 220.766 31.7936 220.614 31.6394 220.498C31.4853 220.381 31.3159 220.305 31.1314 220.27C30.9469 220.234 30.7555 220.243 30.5571 220.297L30.1393 219.57C30.442 219.451 30.7518 219.408 31.0687 219.441C31.3824 219.474 31.6811 219.585 31.9647 219.774C32.2451 219.962 32.4856 220.231 32.6862 220.58Z" fill="black"/>
<path d="M22.1322 212.766L22.7705 212.455L24.0104 214.995L23.3722 215.306L22.1322 212.766ZM21.8364 215.139L21.4688 214.386L26.1407 212.105C26.3535 212.002 26.498 211.893 26.5743 211.779C26.6473 211.665 26.6781 211.549 26.6665 211.434C26.6517 211.317 26.6173 211.204 26.5633 211.093C26.5228 211.01 26.4853 210.944 26.4509 210.895C26.4143 210.847 26.385 210.809 26.363 210.78L26.9648 210.296C27.0089 210.338 27.0628 210.4 27.1266 210.482C27.1925 210.563 27.2598 210.674 27.3283 210.814C27.4322 211.027 27.4882 211.258 27.4964 211.507C27.5036 211.754 27.4463 211.99 27.3245 212.215C27.2017 212.439 26.9977 212.62 26.7126 212.759L21.8364 215.139Z" fill="black"/>
<path d="M15.5947 202.653L20.6724 198.609L20.6445 198.528L14.1529 198.493L13.8506 197.62L21.5968 197.762L21.8945 198.621L15.897 203.526L15.5947 202.653Z" fill="black"/>
<path d="M18.306 187.61L13.0389 189.028L12.8211 188.219L18.0882 186.801L18.306 187.61ZM12.0503 188.853C12.0928 189.011 12.0757 189.161 11.999 189.304C11.9217 189.445 11.8076 189.536 11.6567 189.577C11.5059 189.617 11.3616 189.596 11.224 189.513C11.0858 189.427 10.9955 189.306 10.953 189.148C10.9106 188.99 10.928 188.841 11.0053 188.7C11.0819 188.557 11.1957 188.465 11.3466 188.424C11.4975 188.384 11.642 188.406 11.7802 188.492C11.9178 188.575 12.0079 188.695 12.0503 188.853Z" fill="black"/>
<path d="M11.9409 179.416L12.3017 180.11C12.1884 180.182 12.0831 180.275 11.9858 180.389C11.8857 180.501 11.8132 180.642 11.7683 180.811C11.7233 180.98 11.7255 181.184 11.7748 181.422C11.8422 181.749 11.9738 182.006 12.1694 182.193C12.3623 182.378 12.5735 182.447 12.8031 182.4C13.0071 182.357 13.1529 182.25 13.2406 182.077C13.3282 181.904 13.3789 181.652 13.3927 181.321L13.4238 180.488C13.4412 179.986 13.5452 179.593 13.7357 179.31C13.9239 179.027 14.2046 178.847 14.5779 178.77C14.884 178.707 15.1757 178.739 15.4532 178.865C15.7302 178.989 15.9706 179.193 16.1743 179.478C16.378 179.762 16.5226 180.112 16.6082 180.527C16.7207 181.072 16.6954 181.547 16.5326 181.953C16.3698 182.359 16.071 182.656 15.6361 182.845L15.2806 182.106C15.5528 181.972 15.7395 181.788 15.8407 181.552C15.9414 181.313 15.9571 181.026 15.8877 180.69C15.8088 180.307 15.665 180.02 15.4563 179.829C15.2448 179.636 15.0243 179.563 14.7947 179.61C14.6092 179.648 14.4673 179.745 14.3689 179.901C14.2681 180.057 14.2142 180.276 14.2071 180.558L14.1821 181.491C14.1671 182.005 14.0615 182.401 13.8655 182.681C13.6666 182.959 13.3828 183.136 13.0141 183.212C12.7127 183.274 12.4286 183.244 12.1618 183.123C11.8946 182.999 11.6645 182.804 11.4716 182.536C11.2782 182.267 11.1428 181.944 11.0653 181.569C10.9562 181.04 10.9865 180.601 11.1562 180.252C11.3254 179.9 11.5869 179.622 11.9409 179.416Z" fill="black"/>
<path d="M12.1331 168.727L8.93223 169.116L8.83116 168.284L14.2459 167.626L14.347 168.458L13.4304 168.569L13.4373 168.625C13.7276 168.719 13.9855 168.888 14.2107 169.132C14.4336 169.377 14.5699 169.704 14.6196 170.113C14.6607 170.451 14.6232 170.761 14.5072 171.042C14.3887 171.324 14.1882 171.558 13.9057 171.745C13.6208 171.932 13.248 172.054 12.7874 172.11L9.34679 172.528L9.24572 171.696L12.6299 171.285C13.0248 171.237 13.3263 171.088 13.5344 170.839C13.7423 170.587 13.8253 170.288 13.7833 169.943C13.7582 169.736 13.6798 169.532 13.548 169.331C13.416 169.128 13.2318 168.966 12.9956 168.847C12.759 168.726 12.4715 168.686 12.1331 168.727Z" fill="black"/>
<path d="M13.4795 158.286C13.4918 158.631 13.4379 158.947 13.3178 159.233C13.1953 159.519 13.0128 159.75 12.7703 159.924C12.5254 160.099 12.2255 160.192 11.8706 160.205C11.5583 160.216 11.3029 160.163 11.1046 160.047C10.9038 159.931 10.7442 159.772 10.6257 159.57C10.5071 159.368 10.4163 159.144 10.353 158.898C10.2873 158.649 10.2334 158.399 10.1913 158.147C10.1369 157.817 10.0954 157.55 10.0668 157.344C10.0358 157.137 9.99133 156.987 9.93355 156.894C9.87569 156.799 9.77932 156.754 9.64447 156.759L9.61608 156.76C9.26592 156.772 8.99724 156.878 8.81005 157.076C8.62277 157.273 8.53599 157.564 8.5497 157.949C8.56392 158.349 8.6626 158.659 8.84576 158.88C9.02891 159.101 9.2215 159.254 9.42352 159.339L9.16787 160.145C8.83159 160.014 8.56697 159.834 8.37402 159.604C8.17862 159.372 8.03924 159.116 7.95588 158.837C7.87008 158.556 7.8223 158.278 7.81254 158.004C7.80632 157.829 7.82046 157.627 7.85497 157.398C7.88703 157.167 7.96316 156.943 8.08335 156.726C8.20345 156.506 8.38993 156.32 8.64276 156.169C8.8956 156.018 9.23851 155.935 9.67147 155.919L13.263 155.792L13.2927 156.629L12.5546 156.656L12.5561 156.698C12.6764 156.751 12.8063 156.841 12.9459 156.969C13.0855 157.096 13.2065 157.268 13.3089 157.485C13.4114 157.702 13.4683 157.969 13.4795 158.286ZM12.7226 158.185C12.7109 157.853 12.6359 157.576 12.4977 157.354C12.3594 157.129 12.1853 156.962 11.9753 156.854C11.7653 156.743 11.5467 156.691 11.3195 156.699L10.553 156.727C10.5968 156.761 10.6386 156.837 10.6784 156.957C10.7158 157.074 10.7502 157.21 10.7818 157.365C10.8109 157.518 10.8375 157.668 10.8617 157.814C10.8834 157.957 10.9017 158.074 10.9168 158.164C10.9529 158.38 11.0063 158.582 11.0769 158.769C11.145 158.954 11.2439 159.102 11.3734 159.213C11.5005 159.322 11.6705 159.373 11.8834 159.366C12.1744 159.355 12.3906 159.24 12.532 159.019C12.6709 158.796 12.7345 158.518 12.7226 158.185Z" fill="black"/>
<path d="M5.90469 147.437L13.1751 147.621L13.1538 148.459L5.88342 148.274L5.90469 147.437Z" fill="black"/>
<path d="M8.82945 132.171C8.46715 132.165 8.16699 132.298 7.92899 132.572C7.69099 132.845 7.54222 133.2 7.48269 133.636C7.43916 133.955 7.45268 134.241 7.52325 134.495C7.59414 134.746 7.71077 134.95 7.87314 135.109C8.03584 135.265 8.23212 135.358 8.462 135.39C8.65435 135.416 8.82596 135.393 8.97684 135.32C9.12569 135.245 9.25578 135.141 9.3671 135.008C9.47608 134.874 9.57078 134.732 9.65118 134.581C9.72924 134.429 9.79498 134.288 9.84841 134.159L10.1453 133.455C10.2202 133.274 10.3167 133.074 10.4348 132.856C10.5533 132.636 10.702 132.43 10.8809 132.24C11.0578 132.046 11.2718 131.896 11.523 131.79C11.7741 131.683 12.0685 131.653 12.4063 131.699C12.7957 131.752 13.1336 131.902 13.4201 132.149C13.7069 132.393 13.9164 132.723 14.0485 133.138C14.181 133.55 14.2095 134.033 14.134 134.587C14.0636 135.103 13.9194 135.538 13.7013 135.893C13.4835 136.246 13.211 136.509 12.8836 136.685C12.5566 136.857 12.1941 136.931 11.7962 136.905L11.9191 136.005C12.1944 136.018 12.4321 135.958 12.6321 135.822C12.8301 135.685 12.9893 135.498 13.1097 135.264C13.2281 135.027 13.3068 134.765 13.3459 134.479C13.3913 134.146 13.3782 133.839 13.3064 133.56C13.2323 133.28 13.1085 133.049 12.9349 132.867C12.759 132.686 12.5397 132.577 12.277 132.541C12.0377 132.508 11.8339 132.549 11.6655 132.662C11.4972 132.775 11.3512 132.935 11.2276 133.14C11.104 133.345 10.9898 133.57 10.8848 133.813L10.5105 134.666C10.2718 135.206 9.97998 135.621 9.63493 135.908C9.28987 136.195 8.87457 136.306 8.38901 136.24C7.98555 136.185 7.64858 136.028 7.37809 135.769C7.10558 135.507 6.91134 135.179 6.79536 134.786C6.67736 134.39 6.64972 133.962 6.71245 133.502C6.77582 133.038 6.91542 132.636 7.13125 132.298C7.34474 131.959 7.60897 131.704 7.92395 131.531C8.23925 131.357 8.57949 131.289 8.94467 131.327L8.82945 132.171Z" fill="black"/>
<path d="M10.7241 120.917L11.4191 121.064L10.8363 123.83L10.1413 123.683L10.7241 120.917ZM9.03243 122.608L9.20522 121.788L14.2924 122.86C14.524 122.908 14.7049 122.911 14.8348 122.869C14.963 122.823 15.058 122.751 15.1198 122.653C15.1798 122.552 15.2225 122.441 15.2479 122.321C15.2669 122.23 15.2779 122.155 15.2809 122.095C15.2815 122.035 15.282 121.987 15.2824 121.95L16.0542 121.939C16.0633 121.999 16.0678 122.081 16.0677 122.185C16.0698 122.289 16.0548 122.418 16.0226 122.571C15.9738 122.803 15.8762 123.019 15.7297 123.221C15.5837 123.42 15.3934 123.571 15.1588 123.674C14.9247 123.774 14.6524 123.792 14.342 123.727L9.03243 122.608Z" fill="black"/>
<path d="M15.8149 113.513L12.714 112.629L12.9438 111.823L18.1893 113.318L17.9595 114.124L17.0716 113.871L17.056 113.926C17.2874 114.124 17.4594 114.38 17.5721 114.693C17.6825 115.005 17.6812 115.359 17.5683 115.755C17.4748 116.083 17.32 116.354 17.1039 116.568C16.8855 116.782 16.6098 116.92 16.2768 116.982C15.9416 117.044 15.5508 117.012 15.1046 116.885L11.7715 115.934L12.0013 115.128L15.2797 116.063C15.6622 116.172 15.9978 116.152 16.2865 116.003C16.5758 115.852 16.7682 115.609 16.8636 115.274C16.9207 115.074 16.9276 114.855 16.8842 114.619C16.8415 114.38 16.7344 114.16 16.5629 113.959C16.3921 113.755 16.1427 113.606 15.8149 113.513Z" fill="black"/>
<path d="M21.2325 104.029C21.0693 104.454 20.818 104.787 20.4787 105.029C20.1372 105.271 19.7345 105.407 19.2706 105.439C18.8046 105.471 18.302 105.383 17.7629 105.175C17.2282 104.969 16.7995 104.699 16.4768 104.364C16.1541 104.03 15.9485 103.657 15.86 103.248C15.7715 102.838 15.8098 102.419 15.9747 101.991C16.1023 101.659 16.2583 101.419 16.4427 101.269C16.6258 101.116 16.8065 101.016 16.9848 100.968C17.1618 100.917 17.3055 100.879 17.416 100.856L17.4415 100.79L14.9359 99.8255L15.2369 99.0433L22.0244 101.655L21.7336 102.411L20.9514 102.11L20.9157 102.203C20.9864 102.296 21.0721 102.423 21.1727 102.583C21.271 102.743 21.3376 102.942 21.3724 103.181C21.405 103.42 21.3584 103.702 21.2325 104.029ZM20.5707 103.653C20.6915 103.339 20.7118 103.043 20.6316 102.763C20.5492 102.483 20.3839 102.23 20.1356 102.005C19.8851 101.78 19.5676 101.593 19.1832 101.445C18.8032 101.299 18.4494 101.226 18.1219 101.227C17.7921 101.227 17.506 101.304 17.2636 101.459C17.019 101.614 16.8355 101.85 16.713 102.168C16.5855 102.5 16.5643 102.809 16.6494 103.095C16.7331 103.378 16.8984 103.631 17.1454 103.853C17.3909 104.072 17.6927 104.25 18.0506 104.388C18.413 104.527 18.7634 104.599 19.102 104.602C19.4392 104.603 19.7372 104.527 19.9959 104.375C20.2533 104.221 20.4449 103.98 20.5707 103.653Z" fill="black"/>
<path d="M24.9426 94.5517L19.9896 92.2669L20.3407 91.5059L25.2936 93.7907L24.9426 94.5517ZM19.3426 91.4991C19.2742 91.6475 19.1647 91.7521 19.014 91.813C18.8644 91.8717 18.7187 91.8683 18.5768 91.8029C18.4349 91.7374 18.3377 91.6287 18.2853 91.4768C18.2338 91.3227 18.2423 91.1715 18.3107 91.0231C18.3792 90.8748 18.4882 90.7713 18.6378 90.7126C18.7884 90.6517 18.9347 90.654 19.0766 90.7194C19.2185 90.7849 19.3151 90.8946 19.3666 91.0487C19.419 91.2007 19.411 91.3508 19.3426 91.4991Z" fill="black"/>
<path d="M28.3354 87.7001C28.1009 88.1331 27.7922 88.4572 27.4091 88.6725C27.0271 88.8856 26.6013 88.9835 26.1315 88.966C25.6629 88.9465 25.1808 88.8026 24.6853 88.5343C24.1857 88.2637 23.7986 87.937 23.524 87.5541C23.2506 87.1691 23.0988 86.7584 23.0685 86.3221C23.0394 85.8836 23.1421 85.4479 23.3766 85.0149C23.611 84.5819 23.9192 84.2588 24.3012 84.0456C24.6843 83.8304 25.1112 83.7331 25.5819 83.7538C26.0537 83.7723 26.5395 83.9169 27.0391 84.1875C27.5346 84.4557 27.918 84.7818 28.1894 85.1657C28.4619 85.5475 28.6127 85.9576 28.6418 86.396C28.672 86.8324 28.5699 87.2671 28.3354 87.7001ZM27.6734 87.3416C27.8515 87.0127 27.9138 86.6964 27.8601 86.3927C27.8065 86.0891 27.6699 85.8118 27.4503 85.561C27.2307 85.3102 26.9607 85.098 26.6401 84.9244C26.3195 84.7508 25.9931 84.6401 25.661 84.5921C25.3289 84.5442 25.02 84.5802 24.7343 84.7001C24.4486 84.82 24.2167 85.0444 24.0386 85.3734C23.8605 85.7023 23.7993 86.0191 23.855 86.3239C23.9107 86.6287 24.0494 86.9071 24.271 87.159C24.4927 87.4109 24.7638 87.6237 25.0844 87.7973C25.405 87.9709 25.7303 88.0811 26.0604 88.1279C26.3904 88.1747 26.6972 88.1376 26.9808 88.0165C27.2644 87.8955 27.4953 87.6705 27.6734 87.3416Z" fill="black"/>
<path d="M35.8231 66.0373L35.2985 66.7447C35.064 66.6356 34.8309 66.5763 34.5994 66.5667C34.3692 66.5551 34.1468 66.5848 33.9322 66.6555C33.7171 66.723 33.5167 66.8264 33.3309 66.9656C33.1451 67.1049 32.9803 67.2715 32.8365 67.4655C32.5742 67.8192 32.426 68.2059 32.3918 68.6256C32.359 69.0434 32.4539 69.466 32.6764 69.8933C32.9003 70.3186 33.2652 70.7189 33.771 71.094C34.2769 71.4691 34.7658 71.702 35.2379 71.7927C35.7114 71.8815 36.1433 71.8495 36.5336 71.6968C36.9253 71.5422 37.2522 71.2881 37.5145 70.9344C37.6584 70.7404 37.7699 70.5343 37.8492 70.3161C37.9285 70.0978 37.9702 69.8767 37.9742 69.6527C37.9777 69.4255 37.9405 69.2033 37.8626 68.9864C37.7842 68.7662 37.6597 68.5605 37.4892 68.3691L38.0138 67.6617C38.2728 67.9364 38.4681 68.2315 38.5995 68.5471C38.731 68.8626 38.8019 69.1863 38.8122 69.5182C38.8207 69.8487 38.7711 70.1759 38.6635 70.4999C38.5572 70.8219 38.3949 71.1304 38.1763 71.4251C37.8068 71.9233 37.3566 72.2762 36.8255 72.4836C36.2944 72.6911 35.722 72.7396 35.1082 72.6293C34.4945 72.519 33.8795 72.2355 33.2634 71.7786C32.6472 71.3217 32.1973 70.8156 31.9135 70.2603C31.6297 69.7051 31.5099 69.1432 31.5541 68.5748C31.5984 68.0063 31.8052 67.473 32.1747 66.9748C32.3933 66.68 32.6412 66.4351 32.9186 66.2399C33.1973 66.0428 33.497 65.901 33.8175 65.8145C34.1362 65.7266 34.4656 65.6997 34.8058 65.7339C35.144 65.7666 35.4831 65.8677 35.8231 66.0373Z" fill="black"/>
<path d="M46.7032 60.5822C46.3727 60.9472 45.9959 61.1889 45.5727 61.3072C45.1511 61.4237 44.7142 61.4178 44.262 61.2895C43.8113 61.1594 43.3771 60.9053 42.9594 60.5271C42.5382 60.1459 42.2396 59.7367 42.0636 59.2996C41.8892 58.8607 41.8391 58.4258 41.9132 57.9947C41.9888 57.5618 42.1919 57.1629 42.5224 56.7978C42.8528 56.4327 43.2288 56.1919 43.6504 56.0754C44.0736 55.9571 44.5114 55.9638 44.9638 56.0955C45.4178 56.2254 45.8554 56.4811 46.2767 56.8623C46.6944 57.2405 46.9896 57.6481 47.1622 58.0854C47.3364 58.5209 47.3857 58.9551 47.31 59.3879C47.2359 59.819 47.0336 60.2171 46.7032 60.5822ZM46.145 60.0769C46.3961 59.7996 46.5315 59.5071 46.5514 59.1994C46.5713 58.8917 46.5043 58.59 46.3505 58.2942C46.1966 57.9985 45.9846 57.7283 45.7143 57.4837C45.444 57.239 45.1532 57.054 44.8419 56.9287C44.5306 56.8034 44.222 56.7652 43.916 56.8139C43.61 56.8627 43.3315 57.0257 43.0805 57.303C42.8295 57.5803 42.6949 57.8736 42.6768 58.1829C42.6587 58.4923 42.7274 58.7956 42.883 59.0929C43.0386 59.3902 43.2515 59.6612 43.5218 59.9058C43.7921 60.1505 44.082 60.3347 44.3916 60.4584C44.7011 60.5821 45.008 60.6188 45.3122 60.5684C45.6164 60.5181 45.894 60.3543 46.145 60.0769Z" fill="black"/>
<path d="M54.9517 51.87C54.6178 52.1785 54.2452 52.3665 53.8338 52.4341C53.4207 52.4999 52.999 52.4448 52.5687 52.2687C52.1368 52.0908 51.7248 51.7898 51.3327 51.3655C50.9439 50.9448 50.6786 50.513 50.5369 50.0702C50.3952 49.6273 50.3751 49.2027 50.4765 48.7962C50.578 48.3898 50.7974 48.0307 51.1347 47.7189C51.3954 47.4779 51.6416 47.331 51.8732 47.2781C52.105 47.2219 52.3115 47.2116 52.4927 47.2472C52.674 47.2795 52.8194 47.3095 52.9289 47.3373L52.981 47.2891L51.1589 45.3175L51.7744 44.7487L56.7105 50.0897L56.1159 50.6393L55.5471 50.0238L55.4741 50.0913C55.4964 50.2061 55.5172 50.3577 55.5366 50.5461C55.5544 50.7328 55.526 50.9411 55.4516 51.171C55.3756 51.3992 55.209 51.6322 54.9517 51.87ZM54.5241 51.24C54.771 51.0118 54.9202 50.7547 54.9717 50.4685C55.0216 50.1807 54.9848 49.881 54.8614 49.5696C54.7363 49.2564 54.534 48.9485 54.2544 48.646C53.9781 48.347 53.6928 48.1255 53.3986 47.9815C53.1027 47.8359 52.8118 47.7792 52.5257 47.8114C52.238 47.842 51.969 47.973 51.7186 48.2043C51.4578 48.4454 51.3024 48.7132 51.2522 49.0077C51.2022 49.2989 51.239 49.5986 51.3626 49.9067C51.4863 50.2114 51.6783 50.5046 51.9386 50.7863C52.2021 51.0714 52.485 51.2903 52.7872 51.443C53.0896 51.5922 53.3903 51.656 53.6894 51.6343C53.9886 51.6092 54.2668 51.4778 54.5241 51.24Z" fill="black"/>
<path d="M64.4062 43.5435C63.9903 43.8649 63.5607 44.0503 63.1172 44.0999C62.6742 44.1461 62.2431 44.0664 61.8238 43.8608C61.405 43.6519 61.0248 43.3264 60.6831 42.8843C60.3415 42.4423 60.1209 41.9904 60.0214 41.5287C59.9223 41.0637 59.9448 40.6244 60.0889 40.2108C60.2335 39.7939 60.5005 39.4349 60.8901 39.1338C61.1149 38.96 61.3658 38.8259 61.6429 38.7315C61.92 38.637 62.2136 38.6046 62.5237 38.6342C62.8324 38.6619 63.1465 38.7722 63.4661 38.965C63.7857 39.1578 64.1011 39.4556 64.4124 39.8583L64.6295 40.1393L61.3028 42.7105L60.8598 42.1374L63.5122 40.0873C63.324 39.8438 63.1073 39.6642 62.8623 39.5484C62.6191 39.4312 62.3658 39.3861 62.1024 39.4131C61.8409 39.4387 61.5903 39.5441 61.3505 39.7294C61.0864 39.9336 60.9086 40.1758 60.817 40.456C60.7258 40.7329 60.7091 41.0151 60.7667 41.3027C60.8244 41.5902 60.9452 41.853 61.1291 42.0908L61.4244 42.473C61.6763 42.7989 61.9461 43.0317 62.2336 43.1715C62.5216 43.308 62.8124 43.3571 63.1059 43.3187C63.3979 43.2785 63.6779 43.1549 63.9458 42.9478C64.12 42.8132 64.2585 42.6672 64.3613 42.5099C64.4646 42.3493 64.5294 42.1796 64.5557 42.0007C64.5805 41.8199 64.5631 41.6329 64.5035 41.4396L65.2831 41.1243C65.3836 41.3937 65.418 41.6723 65.3861 41.9602C65.3529 42.2462 65.2546 42.5256 65.0914 42.7984C64.9268 43.0693 64.6984 43.3176 64.4062 43.5435Z" fill="black"/>
<path d="M78.9254 27.416C78.7394 27.2466 78.5441 27.1112 78.3394 27.0096C78.1356 26.9048 77.9242 26.837 77.7053 26.8061C77.4883 26.7741 77.2666 26.7816 77.0401 26.8285C76.8136 26.8755 76.586 26.9638 76.3575 27.0936C75.9828 27.3063 75.6971 27.5965 75.5002 27.9642C75.3033 28.3319 75.2213 28.7556 75.254 29.2352C75.2868 29.7148 75.4586 30.2284 75.7695 30.776C76.0805 31.3236 76.4345 31.7338 76.8316 32.0065C77.2288 32.2792 77.6388 32.4235 78.0616 32.4393C78.4844 32.4552 78.8913 32.3521 79.2825 32.13C79.6448 31.9242 79.9201 31.6658 80.1083 31.3548C80.2974 31.0405 80.3885 30.6975 80.3816 30.3257C80.3755 29.9507 80.2627 29.5697 80.0429 29.1827L80.3057 29.0988L78.4034 30.1789L78.0177 29.4995L80.4263 28.1319L80.8121 28.8113C81.1078 29.3321 81.2538 29.8482 81.2501 30.3594C81.2484 30.8695 81.1132 31.341 80.8445 31.7739C80.5767 32.2037 80.1916 32.5612 79.6893 32.8464C79.1293 33.1643 78.5625 33.312 77.9888 33.2892C77.4171 33.2654 76.875 33.0777 76.3623 32.7263C75.8518 32.3737 75.4071 31.8639 75.0284 31.1968C74.7443 30.6966 74.5558 30.2087 74.4629 29.7334C74.3708 29.2548 74.3682 28.8043 74.4551 28.382C74.542 27.9597 74.7116 27.5775 74.9639 27.2355C75.2162 26.8936 75.5452 26.6074 75.9507 26.3771C76.2843 26.1878 76.6238 26.0617 76.9693 25.9989C77.3156 25.9329 77.6541 25.9273 77.9846 25.9819C78.316 26.0333 78.6297 26.1424 78.9258 26.3091C79.2208 26.4738 79.4842 26.6931 79.716 26.9671L78.9254 27.416Z" fill="black"/>
<path d="M89.9704 27.1776L87.637 22.2473L88.3945 21.8888L90.7279 26.819L89.9704 27.1776ZM87.6333 21.2433C87.4856 21.3132 87.3345 21.3232 87.1799 21.2732C87.0274 21.2223 86.9178 21.1262 86.851 20.985C86.7841 20.8438 86.7793 20.698 86.8366 20.5478C86.896 20.3966 86.9995 20.2861 87.1471 20.2162C87.2948 20.1463 87.4448 20.1368 87.5973 20.1878C87.7519 20.2377 87.8626 20.3333 87.9294 20.4745C87.9963 20.6158 88 20.762 87.9406 20.9132C87.8834 21.0634 87.7809 21.1734 87.6333 21.2433Z" fill="black"/>
<path d="M94.8785 18.9695L95.1532 19.6244L92.5465 20.7178L92.2718 20.0629L94.8785 18.9695ZM92.526 18.5391L93.2989 18.2149L95.3098 23.0091C95.4014 23.2274 95.5017 23.3779 95.6108 23.4605C95.7212 23.54 95.8344 23.5773 95.9504 23.5722C96.0676 23.5641 96.183 23.5363 96.2965 23.4887C96.3817 23.4529 96.4497 23.4193 96.5006 23.3876C96.5506 23.3538 96.5906 23.3268 96.6206 23.3065L97.069 23.9348C97.0249 23.9764 96.96 24.0268 96.8743 24.0858C96.7896 24.147 96.6752 24.2078 96.5311 24.2683C96.3128 24.3598 96.0792 24.4026 95.8302 24.3967C95.5834 24.3898 95.351 24.3191 95.1329 24.1847C94.9169 24.0494 94.7476 23.8354 94.6249 23.5429L92.526 18.5391Z" fill="black"/>
<path d="M107.03 20.0793L105.069 13.0758L105.917 12.8384L106.79 15.9571L110.524 14.9116L109.651 11.7929L110.499 11.5555L112.46 18.5589L111.612 18.7964L110.735 15.664L107.001 16.7094L107.878 19.8418L107.03 20.0793Z" fill="black"/>
<path d="M124.312 13.4711L123.755 10.2953L124.58 10.1503L125.523 15.5227L124.698 15.6676L124.538 14.7582L124.482 14.7681C124.404 15.063 124.249 15.3294 124.017 15.5673C123.784 15.8028 123.465 15.9562 123.059 16.0274C122.724 16.0864 122.412 16.0654 122.125 15.9643C121.838 15.861 121.593 15.6731 121.392 15.4009C121.19 15.1263 121.048 14.7605 120.968 14.3035L120.369 10.8898L121.194 10.7448L121.784 14.1025C121.853 14.4943 122.017 14.7875 122.277 14.9822C122.54 15.1765 122.842 15.2435 123.185 15.1833C123.39 15.1473 123.59 15.0582 123.784 14.916C123.98 14.7734 124.131 14.581 124.237 14.3387C124.346 14.0961 124.371 13.8069 124.312 13.4711Z" fill="black"/>
<path d="M133.22 14.2629L132.601 7.0166L133.436 6.94529L133.665 9.62021L133.736 9.61417C133.789 9.51457 133.864 9.38702 133.96 9.23151C134.058 9.07343 134.205 8.92784 134.4 8.79473C134.597 8.65906 134.873 8.57612 135.227 8.5459C135.685 8.50682 136.098 8.58678 136.466 8.78577C136.835 8.98477 137.135 9.28584 137.367 9.689C137.598 10.0921 137.739 10.5791 137.787 11.15C137.836 11.7255 137.781 12.2328 137.621 12.6717C137.462 13.1083 137.218 13.457 136.891 13.7178C136.564 13.9762 136.174 14.1248 135.721 14.1634C135.372 14.1933 135.087 14.1593 134.868 14.0617C134.648 13.9617 134.475 13.8422 134.349 13.7033C134.223 13.562 134.125 13.4444 134.055 13.3506L133.956 13.359L134.027 14.1941L133.22 14.2629ZM133.809 11.4755C133.844 11.8859 133.935 12.2428 134.082 12.5463C134.229 12.8474 134.426 13.0765 134.672 13.2337C134.918 13.3885 135.209 13.4516 135.544 13.423C135.893 13.3932 136.176 13.2763 136.394 13.0724C136.614 12.8659 136.77 12.6008 136.861 12.277C136.954 11.9506 136.984 11.594 136.951 11.2071C136.918 10.825 136.83 10.4857 136.686 10.1891C136.544 9.88994 136.347 9.66081 136.096 9.50168C135.847 9.33999 135.546 9.27426 135.192 9.30448C134.852 9.33348 134.574 9.44396 134.358 9.63589C134.141 9.82547 133.987 10.0786 133.895 10.3953C133.803 10.7097 133.774 11.0697 133.809 11.4755Z" fill="black"/>
</svg>
