<svg width="77" height="27" viewBox="0 0 77 27" fill="none" xmlns="http://www.w3.org/2000/svg">
<rect width="77" height="27" rx="2" fill="#B35959"/>
<path d="M27.344 5.768H28.672V20.248H27.344V5.768ZM23.104 7.336H24.416C24.416 8.38133 24.288 9.38933 24.032 10.36C23.7867 11.3307 23.3973 12.2533 22.864 13.128C22.3307 13.992 21.6373 14.7973 20.784 15.544C19.9307 16.2907 18.896 16.9573 17.68 17.544L16.976 16.472C18.3733 15.8 19.5253 15.016 20.432 14.12C21.3387 13.224 22.0107 12.2267 22.448 11.128C22.8853 10.0187 23.104 8.824 23.104 7.544V7.336ZM17.648 7.336H23.664V8.408H17.648V7.336ZM32.1428 15.656H33.2788C34.1641 15.656 34.9748 15.6453 35.7108 15.624C36.4468 15.6027 37.1561 15.56 37.8388 15.496C38.5321 15.432 39.2414 15.336 39.9668 15.208L40.0948 16.296C39.3588 16.424 38.6388 16.5253 37.9348 16.6C37.2308 16.664 36.5001 16.7067 35.7428 16.728C34.9961 16.7493 34.1748 16.76 33.2788 16.76H32.1428V15.656ZM32.1428 7.08H38.8788V8.184H33.4708V16.04H32.1428V7.08ZM33.1348 11.144H38.5588V12.216H33.1348V11.144ZM41.3108 5.768H42.6388V20.248H41.3108V5.768ZM42.3348 11.576H45.0068V12.696H42.3348V11.576ZM56.8295 5.768H58.1415V20.264H56.8295V5.768ZM53.0215 11.144H57.2135V12.232H53.0215V11.144ZM46.8135 6.904H48.1415V10.664H52.1575V6.904H53.4535V16.616H46.8135V6.904ZM48.1415 11.72V15.528H52.1575V11.72H48.1415ZM60.9403 13.784H74.0283V14.856H60.9403V13.784ZM62.6363 18.84H72.6523V19.928H62.6363V18.84ZM62.6363 15.912H63.9483V19.24H62.6363V15.912ZM62.6683 11.4H72.4923V12.44H62.6683V11.4ZM62.6683 6.312H72.4123V7.352H63.9963V11.8H62.6683V6.312ZM63.5963 8.84H72.0283V9.864H63.5963V8.84Z" fill="#F5F5F5"/>
</svg>
