<svg width="18" height="18" viewBox="0 0 18 18" fill="none" xmlns="http://www.w3.org/2000/svg">
<path d="M4.75112 13.1893L6.40307 11.5373M12.99 4.95043L11.2962 6.6442M14.0146 6.68602L11.2962 6.6442M11.2962 6.6442L11.2544 3.9258M11.2962 6.6442L6.40307 11.5373M6.40307 11.5373L3.66376 11.5582M6.40307 11.5373L6.38216 14.2766" stroke="#876E66" stroke-width="1.10967" stroke-linecap="round"/>
<path d="M4.75066 4.95082L6.40261 6.60278M12.9895 13.1897L11.2957 11.4959M11.2539 14.2143L11.2957 11.4959M11.2957 11.4959L14.0141 11.4541M11.2957 11.4959L6.40261 6.60278M6.40261 6.60278L6.3817 3.86346M6.40261 6.60278L3.66329 6.58187" stroke="#876E66" stroke-width="1.10967" stroke-linecap="round"/>
<path d="M12.9895 9.06962H4.75069" stroke="#876E66" stroke-width="1.10967" stroke-linecap="round"/>
<path d="M8.87032 4.95088V13.1897" stroke="#876E66" stroke-width="1.10967" stroke-linecap="round"/>
</svg>
