<svg width="8" height="8" viewBox="0 0 8 8" fill="none" xmlns="http://www.w3.org/2000/svg">
<path d="M3.60553 7.24296V5.90798M3.60553 0.584961V1.95374M4.72083 0.872235L3.60553 1.95374M3.60553 1.95374L2.49023 0.872235M3.60553 1.95374V5.90798M3.60553 5.90798L2.50713 7.02328M3.60553 5.90798L4.70394 7.02328" stroke="#876E66" stroke-width="0.554834" stroke-linecap="round"/>
<path d="M0.277055 3.91413L1.61204 3.91413M6.93506 3.91413L5.56628 3.91413M6.64778 5.02943L5.56628 3.91413M5.56628 3.91413L6.64778 2.79883M5.56628 3.91413L1.61204 3.91413M1.61204 3.91413L0.496736 2.81573M1.61204 3.91413L0.496736 5.01253" stroke="#876E66" stroke-width="0.554834" stroke-linecap="round"/>
<path d="M5.27041 2.25L1.94141 5.579" stroke="#876E66" stroke-width="0.554834" stroke-linecap="round"/>
<path d="M1.94102 2.25L5.27002 5.579" stroke="#876E66" stroke-width="0.554834" stroke-linecap="round"/>
</svg>
