<svg width="32" height="45" viewBox="0 0 32 45" fill="none" xmlns="http://www.w3.org/2000/svg">
<path d="M16.5 26.5L29.5 20L21.5 14L16 17.5L11.5 14L2 19.5V34.5L16.5 42V26.5Z" fill="white"/>
<path d="M30 35.5V20.5L16.5 27V43L30 35.5Z" fill="#FFD900"/>
<path d="M20.5 2.5L16.5 3.5L10 2.5L8 4L7.5 9L16.5 16.5L23.5 10L24.5 5L20.5 2.5Z" fill="#EC2931"/>
<path d="M30 19.25L20 13.75M30 19.25L16 26.75M30 19.25V35.25L16 42.75M20 13.75L16 16.75L12 13.75M20 13.75C21.5 12.4167 24.5 9.15 24.5 6.75C25 -0.250002 16 1.75 16 4.75C16 1.75011 7.5 0.24989 7.5 6.75C7.5 10.7502 10.5 12.2502 12 13.75M12 13.75L2 19.25M2 19.25L16 26.75M2 19.25V35.25L16 42.75M16 26.75V42.75" stroke="black" stroke-width="3" stroke-linejoin="round"/>
</svg>
