<?xml version="1.0" encoding="iso-8859-1"?>
<!-- Generator: Adobe Illustrator 23.0.5, SVG Export Plug-In . SVG Version: 6.00 Build 0)  -->
<svg version="1.1" xmlns="http://www.w3.org/2000/svg" xmlns:xlink="http://www.w3.org/1999/xlink" x="0px" y="0px"
	 viewBox="0 0 512 512" style="enable-background:new 0 0 512 512;" xml:space="preserve">
<g id="_x31_5_Swimming_Pool">
	<g>
		<g>
			<path d="M477.193,311.117h-16.635v-32.79c0-15.018-12.384-27.38-27.38-27.38c-15.155,0-27.482,12.282-27.482,27.38v32.79h-33.747
				v-32.79c0-15.018-12.384-27.38-27.38-27.38c-15.155,0-27.482,12.282-27.482,27.38v32.79h-36.449l-10.95-25.546h4.286
				c2.211,0,4-1.791,4-4s-1.789-4-4-4h-53.854v-72.026c0-8.972,7.3-16.27,16.272-16.27c9.026,0,16.373,7.298,16.373,16.27
				c0,2.209,1.789,4,4,4c2.211,0,4-1.791,4-4c0-8.972,7.3-16.27,16.272-16.27c8.972,0,16.268,7.298,16.268,16.27
				c0,2.209,1.789,4,4,4s4-1.791,4-4v-17.961c0-45.19-35.399-82.931-81.183-84.952V90.955c0-2.209-1.789-4-4-4c-2.211,0-4,1.791-4,4
				v11.682c-44.919,2.001-81.179,39.689-81.179,84.947v17.961c0,2.209,1.789,4,4,4s4-1.791,4-4c0-8.972,7.296-16.27,16.268-16.27
				c8.297,0,15.418,6.386,16.272,14.556v1.714c0,2.209,1.89,4,4.101,4c2.211,0,4-1.791,4-4c0-8.972,7.3-16.27,16.272-16.27
				s16.268,7.298,16.268,16.27v72.026h-9.612v-2.623c0-12.065-10.07-22.062-22.06-22.062h-78.094l-22.814-27.638
				c-1.406-1.697-3.921-1.945-5.632-0.537c-1.703,1.406-1.945,3.925-0.539,5.63c3.959,4.941-14.34-17.901,38.715,48.327
				c3.3,4.322,8.519,6.902,13.96,6.902h0.185l-10.95,25.546H34.807c-13.038,0-23.642,10.608-23.642,23.646
				c0,11.672,8.507,21.37,19.643,23.279v133.93c0,11.026,8.972,19.998,19.998,19.998h417.033c11.026,0,19.998-8.972,19.998-19.998
				V355.847c7.699-3.903,12.999-11.877,12.999-21.084C500.835,321.725,490.231,311.117,477.193,311.117z M236.393,181.276
				c-6.253,0-11.964,2.379-16.272,6.277v-76.604c24.57,6.033,32.645,51.277,32.645,76.635
				C248.434,183.666,242.689,181.276,236.393,181.276z M293.305,187.551c-4.308-3.898-10.015-6.275-16.268-6.275
				c-6.253,0-11.964,2.377-16.272,6.277c0-24.156-5.783-55.868-22.075-73.772C269.467,123.112,293.291,151.952,293.305,187.551z
				 M155.209,181.276c-6.253,0-11.96,2.377-16.268,6.275c0.012-34.333,23.041-63.896,54.424-73.659
				c-16.004,17.693-21.866,49.09-21.885,73.536C167.161,183.582,161.451,181.276,155.209,181.276z M195.854,181.276
				c-6.304,0-12.053,2.416-16.373,6.368v-0.061c0-24.95,9.119-70.951,32.641-76.62v76.587
				C207.813,183.653,202.107,181.276,195.854,181.276z M413.695,278.327c0-10.686,8.741-19.381,19.482-19.381
				c10.449,0,19.381,8.678,19.381,19.381v32.79h-38.863V278.327z M325.087,375.966h80.609v12.925
				c-19.054-9.556-42.801-9.097-61.435,1.461c-5.925,3.358-12.465,5.472-19.174,6.499V375.966z M405.696,367.966h-80.609v-9.56
				h80.609V367.966z M325.087,350.408v-11.645h80.609v11.645H325.087z M405.696,330.763h-80.609v-11.647c9.418,0,71.198,0,80.609,0
				V330.763z M325.087,278.327c0-10.686,8.741-19.381,19.482-19.381c10.449,0,19.381,8.678,19.381,19.381v32.79h-38.863V278.327z
				 M271.936,311.117h-51.816V285.6H261L271.936,311.117z M118.443,273.812l-9.884-12.926h71.889
				c7.704,0,14.061,6.613,14.061,14.063v2.623h-68.466C123.083,277.571,120.24,276.167,118.443,273.812z M134.918,285.6h77.203
				v25.517h-88.14L134.918,285.6z M19.164,334.763c0-8.628,7.019-15.647,15.643-15.647c66.724,0,222.643,0,282.281,0v31.292H34.807
				C26.183,350.408,19.164,343.389,19.164,334.763z M479.837,358.407v133.565c0,6.617-5.382,11.999-11.999,11.999H50.806
				c-6.617,0-11.999-5.382-11.999-11.999V358.407h278.281v39.143c-10.101,0.159-20.241-2.211-29.056-7.209
				c-19.475-11.046-44.648-11.042-64.146,0.004c-17.08,9.687-39.145,9.681-56.241-0.006c-19.475-11.046-44.644-11.048-64.126,0.002
				c-17.084,9.683-39.152,9.683-56.237,0c-1.929-1.09-4.363-0.414-5.453,1.508c-1.09,1.922-0.414,4.363,1.508,5.453
				c19.482,11.042,44.656,11.038,64.13-0.004c17.08-9.687,39.156-9.685,56.244,0.006c19.475,11.038,44.644,11.044,64.142-0.01
				c17.076-9.683,39.148-9.683,56.233,0.004c19.479,11.05,44.64,11.05,64.181-0.023c17.065-9.671,39.125-9.677,56.323,0.064
				c19.462,11.016,44.604,11.019,64.072,0c1.922-1.088,2.597-3.529,1.508-5.451c-1.086-1.926-3.523-2.601-5.453-1.51
				c-15.364,8.7-34.766,9.538-51.022,2.521v-34.492h63.498H479.837z M477.193,350.408h-63.498v-31.292c7.654,0,43.334,0,63.498,0
				c8.624,0,15.643,7.019,15.643,15.647C492.836,343.389,485.817,350.408,477.193,350.408z"/>
			<path d="M348.268,439.33c15.998-9.07,36.394-9.637,53.019-1.662c1.891,0.907,4.167,0.08,5.176-1.758h0
				c1.069-1.947,0.362-4.46-1.639-5.424c-18.904-9.107-42.214-8.474-60.571,1.925l-0.063,0.037
				c-1.887,1.119-2.484,3.531-1.387,5.427C343.899,439.765,346.348,440.416,348.268,439.33z"/>
			<path d="M107.468,439.354c17.08-9.687,39.156-9.685,56.244,0.006c19.479,11.04,44.643,11.044,64.142-0.01
				c17.084-9.685,39.156-9.675,56.233,0.006c1.918,1.09,4.363,0.414,5.453-1.506s0.414-4.361-1.508-5.451
				c-19.475-11.046-44.64-11.046-64.146,0.004c-17.073,9.683-39.145,9.683-56.241-0.008c-19.479-11.048-44.648-11.044-64.126,0.004
				c-1.922,1.088-2.593,3.527-1.504,5.449C103.105,439.772,105.55,440.434,107.468,439.354z"/>
			<path d="M464.718,474.491c-17.065,9.667-39.125,9.659-56.307-0.07c-19.459-11.02-44.613-11.02-64.15,0.043
				c-17.076,9.683-39.145,9.679-56.229-0.008c-19.475-11.046-44.64-11.046-64.146,0.004c-17.08,9.683-39.145,9.685-56.241-0.01
				c-19.482-11.042-44.652-11.038-64.126,0.004c-17.084,9.687-39.152,9.687-56.237,0c-1.918-1.084-4.363-0.412-5.453,1.508
				c-1.09,1.922-0.414,4.363,1.508,5.453c19.475,11.042,44.648,11.04,64.13-0.002c17.08-9.687,39.156-9.685,56.244,0.006
				c19.482,11.042,44.652,11.04,64.142-0.01c17.084-9.685,39.156-9.677,56.233,0.004c19.479,11.05,44.648,11.05,64.181-0.023
				c17.065-9.671,39.133-9.677,56.323,0.063c19.471,11.021,44.604,11.019,64.072,0c1.922-1.088,2.597-3.529,1.508-5.451
				C469.084,474.077,466.647,473.401,464.718,474.491z"/>
			<path d="M421.894,126.543c26.232,0,47.573-21.34,47.573-47.57c0-26.232-21.342-47.571-47.573-47.571s-47.57,21.34-47.57,47.571
				C374.324,105.203,395.662,126.543,421.894,126.543z M421.894,39.401c21.822,0,39.574,17.752,39.574,39.572
				c0,21.818-17.752,39.57-39.574,39.57c-21.818,0-39.57-17.752-39.57-39.57C382.323,57.154,400.076,39.401,421.894,39.401z"/>
			<path d="M421.894,21.03c2.211,0,4-1.791,4-4V4.03c0-2.209-1.789-4-4-4s-4,1.791-4,4v13.001
				C417.894,19.239,419.683,21.03,421.894,21.03z"/>
			<path d="M417.894,140.917v13.001c0,2.209,1.789,4,4,4s4-1.791,4-4v-13.001c0-2.209-1.789-4-4-4S417.894,138.708,417.894,140.917z
				"/>
			<path d="M468.522,38.001l9.194-9.192c1.562-1.56,1.562-4.093,0-5.656s-4.093-1.562-5.656,0l-9.194,9.192
				c-1.562,1.56-1.562,4.093,0,5.656C464.428,39.563,466.96,39.564,468.522,38.001z"/>
			<path d="M371.731,134.792l9.19-9.192c1.562-1.562,1.562-4.095,0-5.656c-1.562-1.562-4.093-1.562-5.656,0l-9.19,9.192
				c-1.562,1.562-1.562,4.095,0,5.656C367.637,136.355,370.168,136.355,371.731,134.792z"/>
			<path d="M483.837,82.971h12.999c2.211,0,4-1.791,4-4c0-2.209-1.789-4-4-4h-12.999c-2.211,0-4,1.791-4,4
				C479.837,81.18,481.626,82.971,483.837,82.971z"/>
			<path d="M346.952,82.969h12.999c2.211,0,4-1.791,4-4c0-2.209-1.789-4-4-4h-12.999c-2.211,0-4,1.791-4,4
				C342.952,81.178,344.741,82.969,346.952,82.969z"/>
			<path d="M468.522,119.944c-1.562-1.562-4.093-1.562-5.656,0c-1.562,1.562-1.562,4.095,0,5.656l9.194,9.192
				c1.562,1.562,4.093,1.562,5.656,0c1.562-1.562,1.562-4.095,0-5.656L468.522,119.944z"/>
			<path d="M375.269,37.999c1.562,1.562,4.093,1.562,5.656,0c1.562-1.562,1.562-4.095,0-5.656l-9.194-9.192
				c-1.562-1.562-4.093-1.562-5.656,0s-1.562,4.095,0,5.656L375.269,37.999z"/>
		</g>
	</g>
</g>
<g id="Layer_1">
</g>
</svg>
