<?xml version="1.0" encoding="utf-8"?>
<!-- Generator: Adobe Illustrator 26.2.1, SVG Export Plug-In . SVG Version: 6.00 Build 0)  -->
<svg version="1.1" id="Outline" xmlns="http://www.w3.org/2000/svg" xmlns:xlink="http://www.w3.org/1999/xlink" x="0px" y="0px"
	 viewBox="0 0 64 64" enable-background="new 0 0 64 64" xml:space="preserve">
<g>
	<path d="M17.447,30.147c0.17,0.113,0.361,0.167,0.552,0.167c0.324,0,0.642-0.157,0.834-0.447C19.597,28.718,20,27.38,20,26
		s-0.403-2.718-1.167-3.867c-0.305-0.46-0.925-0.588-1.386-0.28c-0.461,0.306-0.586,0.926-0.28,1.386C17.712,24.06,18,25.015,18,26
		s-0.288,1.94-0.833,2.762C16.861,29.222,16.986,29.842,17.447,30.147z"/>
	<path d="M8.553,21.853c-0.459-0.307-1.08-0.181-1.386,0.28C6.403,23.282,6,24.62,6,26s0.403,2.718,1.167,3.867
		c0.192,0.29,0.51,0.447,0.834,0.447c0.189,0,0.382-0.054,0.552-0.167c0.461-0.306,0.586-0.926,0.28-1.386
		C8.288,27.94,8,26.985,8,26s0.288-1.94,0.833-2.762C9.139,22.778,9.014,22.158,8.553,21.853z"/>
	<path d="M12,30v-3h1c1.654,0,3-1.346,3-3s-1.346-3-3-3h-2c-0.553,0-1,0.447-1,1v8c0,0.553,0.447,1,1,1S12,30.553,12,30z M12,23h1
		c0.552,0,1,0.448,1,1s-0.448,1-1,1h-1V23z"/>
	<circle cx="24" cy="57" r="1"/>
	<circle cx="51" cy="57" r="1"/>
	<path d="M36,51c-0.553,0-1,0.447-1,1s0.447,1,1,1h2c0.553,0,1-0.447,1-1s-0.447-1-1-1H36z"/>
	<path d="M61.982,51.911c-0.094-2.207-1.61-4.099-3.77-4.639l-3.703-0.927c-0.621-0.154-1.166-0.496-1.576-0.989L49.968,41.8
		c-0.953-1.144-2.353-1.8-3.841-1.8c-0.553,0-1,0.447-1,1s0.447,1,1,1c0.893,0,1.732,0.394,2.304,1.08l2.954,3.545L47.942,47
		L41,47.049V42h1.561c0.553,0,1-0.447,1-1s-0.447-1-1-1h-8.903c-1.336,0-2.592,0.521-3.536,1.465l-4.857,4.857
		c-0.47,0.469-1.091,0.773-1.749,0.855l-4.918,0.615c-1.299,0.162-2.538,0.663-3.584,1.448C13.126,50.655,12,52.908,12,55.266
		V36.949C12.33,36.979,12.662,37,13,37s0.67-0.021,1-0.051v8.615c0,0.553,0.447,1,1,1s1-0.447,1-1v-8.991
		c4.61-1.31,8-5.549,8-10.574c0-6.065-4.935-11-11-11c-2.162,0-4.26,0.632-6.063,1.826c-0.461,0.305-0.587,0.926-0.282,1.386
		c0.304,0.461,0.925,0.586,1.386,0.282C9.517,17.517,11.231,17,13,17c4.963,0,9,4.037,9,9s-4.037,9-9,9s-9-4.037-9-9
		c0-1.77,0.517-3.484,1.494-4.959c0.305-0.461,0.179-1.081-0.281-1.387c-0.462-0.306-1.083-0.179-1.387,0.281
		C2.632,21.739,2,23.836,2,26c0,5.024,3.39,9.263,8,10.574V61c0,0.553,0.447,1,1,1h4c0.553,0,1-0.447,1-1v-3h3.101
		c0.465,2.279,2.484,4,4.899,4h13c0.553,0,1-0.447,1-1s-0.447-1-1-1h-9.026c0.442-0.584,0.773-1.257,0.924-2H43c0.553,0,1-0.447,1-1
		s-0.447-1-1-1H28.899c-0.465-2.279-2.484-4-4.899-4s-4.434,1.721-4.899,4H14v-0.734c0-0.789,0.18-1.559,0.498-2.266H17
		c0.553,0,1-0.447,1-1s-0.447-1-1-1h-0.975c0.063-0.052,0.122-0.11,0.188-0.159c0.768-0.577,1.678-0.944,2.632-1.063l4.859-0.608
		l16.303-0.114l8-0.056c0.034,0,0.068-0.002,0.102-0.006l6.091-0.664l3.529,0.882c0.954,0.239,1.695,0.92,2.046,1.788H59
		c-0.553,0-1,0.447-1,1s0.447,1,1,1h1v3h-4.101c-0.465-2.279-2.484-4-4.899-4c-2.757,0-5,2.243-5,5s2.243,5,5,5h10
		c0.553,0,1-0.447,1-1s-0.447-1-1-1h-6.026c0.442-0.584,0.773-1.257,0.924-2H61c0.553,0,1-0.447,1-1L61.982,51.911z M14,60h-2v-3
		c0,0.553,0.447,1,1,1h1V60z M24,54c1.654,0,3,1.346,3,3s-1.346,3-3,3s-3-1.346-3-3S22.346,54,24,54z M31.535,42.879
		C32.103,42.312,32.855,42,33.657,42H39v5.063l-11.73,0.082L31.535,42.879z M48,57c0-1.654,1.346-3,3-3s3,1.346,3,3s-1.346,3-3,3
		S48,58.654,48,57z"/>
	<circle cx="41" cy="61" r="1"/>
	<path d="M56.896,44.881l1.802,0.45c0.081,0.021,0.163,0.03,0.243,0.03c0.448,0,0.855-0.303,0.969-0.758
		c0.135-0.535-0.191-1.078-0.728-1.212l-1.802-0.45c-1.036-0.26-1.945-0.83-2.628-1.649c-0.354-0.425-0.984-0.482-1.408-0.129
		c-0.425,0.354-0.482,0.984-0.129,1.408C54.172,43.72,55.444,44.519,56.896,44.881z"/>
	<path d="M33.657,38h12.469c1.677,0,3.301,0.604,4.571,1.699c0.189,0.162,0.422,0.242,0.653,0.242c0.28,0,0.56-0.118,0.758-0.347
		c0.36-0.419,0.313-1.05-0.104-1.411C50.369,36.775,48.282,36,46.126,36H33.657c-0.553,0-1,0.447-1,1S33.104,38,33.657,38z"/>
	<path d="M18.102,43.823c-0.548,0.068-0.937,0.568-0.868,1.116c0.063,0.506,0.494,0.876,0.991,0.876
		c0.041,0,0.083-0.003,0.125-0.008l2.193-0.274c1.976-0.246,3.839-1.157,5.248-2.566c0.391-0.391,0.391-1.023,0-1.414
		s-1.023-0.391-1.414,0c-1.096,1.096-2.546,1.805-4.082,1.996L18.102,43.823z"/>
</g>
</svg>
